<?xml version="1.0" encoding="utf-8"?>
<!-- Generator: Adobe Illustrator 16.0.0, SVG Export Plug-In . SVG Version: 6.00 Build 0)  -->
<!DOCTYPE svg PUBLIC "-//W3C//DTD SVG 1.1//EN" "http://www.w3.org/Graphics/SVG/1.1/DTD/svg11.dtd">
<svg version="1.1" id="Слой_1" xmlns="http://www.w3.org/2000/svg" xmlns:xlink="http://www.w3.org/1999/xlink" x="0px" y="0px"
	 width="70.866px" height="70.866px" viewBox="-27.433 -27.433 70.866 70.866"
	 enable-background="new -27.433 -27.433 70.866 70.866" xml:space="preserve">
<g>
	
		<radialGradient id="SVGID_1_" cx="516.5391" cy="107.7207" r="35.4312" gradientTransform="matrix(1 0 0 1 -508.5391 -99.7207)" gradientUnits="userSpaceOnUse">
		<stop  offset="0" style="stop-color:#FFFFFF"/>
		<stop  offset="0.7732" style="stop-color:#FFFFFF"/>
		<stop  offset="0.9005" style="stop-color:#FFFFFF"/>
		<stop  offset="0.9495" style="stop-color:#FDFDFD"/>
		<stop  offset="0.9691" style="stop-color:#F6F6F6"/>
		<stop  offset="0.9835" style="stop-color:#EAEAEA"/>
		<stop  offset="0.9952" style="stop-color:#D9D9D9"/>
		<stop  offset="1" style="stop-color:#CFCFCF"/>
	</radialGradient>
	<path fill="url(#SVGID_1_)" d="M43.433,8C43.433,27.57,27.57,43.429,8,43.429S-27.434,27.57-27.434,8S-11.57-27.429,8-27.429
		C27.565-27.429,43.433-11.57,43.433,8z"/>
	
		<linearGradient id="SVGID_2_" gradientUnits="userSpaceOnUse" x1="511.2969" y1="101.5889" x2="542.0371" y2="132.3297" gradientTransform="matrix(1 0 0 1 -508.5391 -99.7207)">
		<stop  offset="0" style="stop-color:#000000"/>
		<stop  offset="0.4712" style="stop-color:#787878"/>
		<stop  offset="0.5548" style="stop-color:#878787"/>
		<stop  offset="0.7145" style="stop-color:#ADADAD"/>
		<stop  offset="0.9321" style="stop-color:#EAEAEA"/>
		<stop  offset="1" style="stop-color:#FFFFFF"/>
	</linearGradient>
	<path opacity="0.15" fill="url(#SVGID_2_)" enable-background="new    " d="M7.595,23.876L2.647,30.49l12.264,12.263
		c14.52-2.87,25.854-14.61,28.111-29.347L18.123-11.499l-20.21,18.21L7.595,23.876z"/>
	<g>
		<path fill="#DD4B39" stroke="#DD4B39" stroke-width="0.094" d="M8.014-22.779c0.162,0.09,0.297,0.229,0.423,0.369
			c4.739,4.758,9.479,9.515,14.21,14.286c-2.982,2.933-5.911,5.915-8.876,8.861c-1.112,1.122-2.243,2.226-3.352,3.37
			c-0.819-2-1.617-4.001-2.405-6.01c0-2.082,0.009-4.172,0-6.267C8-13.039,7.991-17.909,8.014-22.779L8.014-22.779z"/>
		<path fill="#EF851C" stroke="#EF851C" stroke-width="0.094" d="M-6.674-8.174H8.014c0.009,2.1,0,4.181,0,6.271
			C7.198,0.062,6.409,2.049,5.626,4.044c-0.253-0.135-0.433-0.342-0.631-0.55L-6.629-8.133L-6.674-8.174z"/>
		<path fill="#7E3794" stroke="#7E3794" stroke-width="0.094" d="M22.642-8.129l0.05-0.031c-0.019,4.888-0.019,9.78,0,14.664h-6.316
			c-1.974-0.824-3.969-1.581-5.956-2.396c1.1-1.149,2.234-2.248,3.352-3.37C16.727-2.214,19.664-5.191,22.642-8.129L22.642-8.129z"
			/>
		<path fill="#FFBB1B" stroke="#FFBB1B" stroke-width="0.094" d="M-9.07-5.714c0.829-0.784,1.595-1.636,2.441-2.415L4.995,3.494
			c0.198,0.208,0.378,0.415,0.631,0.56C5.364,4.242,5.031,4.314,4.733,4.449c-1.698,0.689-3.419,1.334-5.1,2.063
			c-2.1-0.022-4.199-0.009-6.298-0.009c-4.884-0.009-9.768,0.027-14.651-0.009C-17.242,2.409-13.152-1.65-9.07-5.714L-9.07-5.714z"
			/>
		<path fill="#1A8763" stroke="#1A8763" stroke-width="0.094" d="M-6.664,6.5c2.099,0,4.198-0.01,6.298,0.009
			C1.616,7.324,3.599,8.09,5.58,8.892c-3.252,3.303-6.541,6.56-9.812,9.849c-0.825,0.779-1.568,1.64-2.442,2.374
			C-6.674,16.249-6.683,11.37-6.664,6.5z"/>
		<path fill="#427FED" stroke="#427FED" stroke-width="0.094" d="M16.375,6.5h6.316c4.874,0.009,9.753-0.01,14.623,0.009
			c-3.126,3.176-6.298,6.316-9.442,9.475c-1.748,1.729-3.46,3.486-5.208,5.189c-3.896-3.938-7.848-7.839-11.763-11.785
			c-0.162-0.171-0.329-0.324-0.527-0.438c0.329-0.207,0.698-0.311,1.059-0.464C13.077,7.828,14.73,7.188,16.375,6.5L16.375,6.5z"/>
		<path fill="#65B045" stroke="#65B045" stroke-width="0.094" d="M5.58,8.901c0.839,1.991,1.596,4.009,2.434,6.005
			c-0.01,2.086,0,4.186-0.01,6.267v10.092c-0.022,1.505,0.032,3-0.022,4.496c-0.238-0.108-0.392-0.329-0.585-0.509
			c-4.69-4.708-9.366-9.425-14.07-14.133c0.874-0.729,1.617-1.595,2.442-2.374C-0.97,15.456,2.328,12.199,5.58,8.901z"/>
		<path fill="#43459D" stroke="#43459D" stroke-width="0.094" d="M10.374,8.955c0.198,0.117,0.369,0.262,0.527,0.433
			c3.915,3.946,7.866,7.844,11.763,11.785c-4.897-0.009-9.776,0.009-14.664,0c0.009-2.081,0-4.181,0.009-6.267
			C8.779,12.92,9.608,10.955,10.374,8.955L10.374,8.955z"/>
	</g>
</g>
</svg>
