<?xml version="1.0" encoding="utf-8"?>
<!-- Generator: Adobe Illustrator 16.0.0, SVG Export Plug-In . SVG Version: 6.00 Build 0)  -->
<!DOCTYPE svg PUBLIC "-//W3C//DTD SVG 1.1//EN" "http://www.w3.org/Graphics/SVG/1.1/DTD/svg11.dtd">
<svg version="1.1" id="Слой_1" xmlns="http://www.w3.org/2000/svg" xmlns:xlink="http://www.w3.org/1999/xlink" x="0px" y="0px"
	 width="70.866px" height="70.866px" viewBox="-90.459 -27.573 70.866 70.866"
	 enable-background="new -90.459 -27.573 70.866 70.866" xml:space="preserve">
<g id="youtube">
	<g>
		<path fill="#FA2216" d="M-19.752,8c0,19.572-15.863,35.433-35.433,35.433S-90.619,27.572-90.619,8
			c0-19.573,15.863-35.433,35.433-35.433C-35.62-27.433-19.752-11.573-19.752,8z"/>
		<path opacity="0.15" enable-background="new    " d="M-45.941-6.734l-2.032-2.032L-48.64-4.04l-0.162,0.167l-4.095-4.096
			l-0.162,0.162l-5.113-5.118l-1.446,4.307l-4.347-4.343l0.347,5.227l2.779,2.775l-2.676,7.971l3.933,3.934l-1.239,1.244
			l-9.687-0.162l-1.437,20.06l15.304,15.31c0.486,0.018,0.973,0.036,1.46,0.036c17.259,0,31.626-12.336,34.779-28.674L-43.918-8.757
			L-45.941-6.734z"/>
	</g>
	<g id="You_tube_2_">
		<polygon fill="#F4F6F9" points="-63.516,3.012 -61.064,3.012 -61.064,-3.462 -58.213,-12.96 -60.704,-12.96 -62.276,-6.576 
			-63.966,-12.96 -66.435,-12.96 -63.516,-3.462 		"/>
		<path fill="#F4F6F9" d="M-48.631,3.184c0.658,0,1.577-0.347,2.519-1.474v1.302h2.176V-8.771h-2.176v8.939
			c-0.266,0.338-0.86,0.888-1.274,0.888c-0.474,0-0.586-0.324-0.586-0.793v-9.029h-2.181v9.845
			C-50.153,2.237-49.797,3.184-48.631,3.184z"/>
		<path fill="#F4F6F9" d="M-58.326,0.074c0,2.078,1.082,3.159,3.199,3.159c1.748,0,3.127-1.18,3.127-3.159v-5.771
			c0-1.843-1.361-3.163-3.127-3.163c-1.919,0-3.199,1.271-3.199,3.163V0.074L-58.326,0.074z M-56.082-5.503
			c0-0.645,0.297-1.126,0.905-1.126c0.672,0,0.955,0.464,0.955,1.126v5.483c0,0.64-0.329,1.113-0.914,1.113
			c-0.6,0-0.946-0.491-0.946-1.113V-5.503L-56.082-5.503z"/>
		<path fill="#F4F6F9" d="M-43.873,16.029c-0.766,0-0.924,0.54-0.924,1.306v1.137h1.834v-1.137
			C-42.963,16.579-43.125,16.029-43.873,16.029z"/>
		<path fill="#F4F6F9" d="M-51.938,16.097c-0.14,0.076-0.288,0.185-0.433,0.342v6.998c0.172,0.181,0.334,0.312,0.491,0.388
			c0.338,0.171,0.834,0.189,1.059-0.108c0.117-0.162,0.181-0.415,0.181-0.774v-5.795c0-0.378-0.072-0.671-0.216-0.865
			C-51.104,15.948-51.572,15.912-51.938,16.097z"/>
		<path fill="#F4F6F9" d="M-40.701,6.369H-69.67c-1.784,0-3.221,1.451-3.221,3.244v16.184c0,1.793,1.437,3.245,3.221,3.245h28.969
			c1.784,0,3.221-1.452,3.221-3.245V9.613C-37.48,7.82-38.917,6.369-40.701,6.369z M-64.791,25.563h-2.333V12.569h-2.41v-2.208
			h7.163v2.208h-2.415v12.993H-64.791z M-56.479,25.563h-2.072v-1.234c-0.388,0.46-0.784,0.803-1.189,1.046
			c-1.126,0.644-2.658,0.63-2.658-1.645v-9.377h2.072v8.598c0,0.455,0.108,0.757,0.555,0.757c0.405,0,0.968-0.522,1.221-0.838
			v-8.521h2.081v11.214H-56.479z M-48.504,23.248c0,1.387-0.509,2.464-1.892,2.464c-0.757,0-1.388-0.284-1.974-1.009v0.859h-2.09
			V10.361h2.09v4.897c0.474-0.572,1.108-1.05,1.848-1.05c1.518,0,2.018,1.288,2.018,2.807V23.248L-48.504,23.248z M-40.828,20.22
			h-3.964v2.118c0,0.838,0.072,1.567,0.901,1.567c0.874,0,0.928-0.595,0.928-1.567v-0.784h2.135V22.4
			c0,2.162-0.923,3.469-3.108,3.469c-1.982,0-2.992-1.45-2.992-3.469v-5.038c0-1.945,1.279-3.297,3.154-3.297
			c1.991,0,2.946,1.266,2.946,3.297l0,0V20.22L-40.828,20.22z"/>
	</g>
</g>
</svg>
