<?xml version="1.0" encoding="utf-8"?>
<!-- Generator: Adobe Illustrator 16.0.0, SVG Export Plug-In . SVG Version: 6.00 Build 0)  -->
<!DOCTYPE svg PUBLIC "-//W3C//DTD SVG 1.1//EN" "http://www.w3.org/Graphics/SVG/1.1/DTD/svg11.dtd">
<svg version="1.1" id="Слой_1" xmlns="http://www.w3.org/2000/svg" xmlns:xlink="http://www.w3.org/1999/xlink" x="0px" y="0px"
	 width="70.866px" height="70.866px" viewBox="-27.433 -27.433 70.866 70.866"
	 enable-background="new -27.433 -27.433 70.866 70.866" xml:space="preserve">
<g id="twitter">
	<g>
		<path fill="#00B7EB" d="M43.433,8.001c0,19.567-15.864,35.428-35.434,35.428c-19.57,0-35.433-15.855-35.433-35.428
			c0-19.57,15.862-35.43,35.433-35.43C27.564-27.429,43.433-11.569,43.433,8.001z"/>
		<path opacity="0.1" enable-background="new    " d="M-1.745,7.289l-5.596,5.596l4.127,4.123l-1.653,1.653l6.132,6.128
			l-0.874,0.928l-12.065-0.928L6.939,43.401c0.36,0.009,0.708,0.027,1.068,0.027c19.097,0,34.659-15.107,35.394-34.031L29.154-4.85
			L8.292,17.327L-1.745,7.289z"/>
	</g>
	<path id="Twitter_2_" fill="#F4F6F9" d="M30.308-1.438c-1.55,0.681-3.203,1.148-4.951,1.356c1.784-1.063,3.145-2.758,3.789-4.768
		c-1.662,0.991-3.51,1.703-5.475,2.091c-1.567-1.676-3.812-2.722-6.285-2.722c-4.753,0-8.612,3.857-8.612,8.615
		c0,0.676,0.077,1.333,0.221,1.964C1.837,4.738-4.511,1.31-8.76-3.907c-0.743,1.274-1.167,2.753-1.167,4.329
		c0,2.992,1.522,5.633,3.83,7.178c-1.406-0.05-2.74-0.437-3.902-1.077c0,0.036,0,0.072,0,0.108c0,4.173,2.974,7.66,6.912,8.457
		c-0.722,0.194-1.487,0.293-2.271,0.293c-0.559,0-1.09-0.05-1.622-0.153c1.1,3.425,4.28,5.921,8.047,5.993
		c-2.946,2.307-6.659,3.689-10.7,3.689c-0.689-0.004-1.379-0.04-2.05-0.121c3.812,2.441,8.34,3.874,13.201,3.874
		c15.846,0,24.506-13.138,24.506-24.528c0-0.369-0.009-0.743-0.019-1.113C27.69,1.806,29.15,0.287,30.308-1.438z"/>
</g>
</svg>
