<?xml version="1.0" encoding="utf-8"?>
<!-- Generator: Adobe Illustrator 16.0.0, SVG Export Plug-In . SVG Version: 6.00 Build 0)  -->
<!DOCTYPE svg PUBLIC "-//W3C//DTD SVG 1.1//EN" "http://www.w3.org/Graphics/SVG/1.1/DTD/svg11.dtd">
<svg version="1.1" id="Слой_1" xmlns="http://www.w3.org/2000/svg" xmlns:xlink="http://www.w3.org/1999/xlink" x="0px" y="0px"
	 width="70.866px" height="70.866px" viewBox="-27.433 -27.433 70.866 70.866"
	 enable-background="new -27.433 -27.433 70.866 70.866" xml:space="preserve">
<g id="facebook">
	<g>
		<path fill="#2556A0" d="M43.433,8C43.433,27.57,27.57,43.429,8,43.429S-27.434,27.57-27.434,8S-11.57-27.429,8-27.429
			C27.565-27.429,43.433-11.57,43.433,8z"/>
		<path opacity="0.15" enable-background="new    " d="M9.257,23.876L2.644,30.49l12.263,12.263
			c14.524-2.87,25.851-14.61,28.112-29.347L18.114-11.499L-2.087,12.523L9.257,23.876z"/>
	</g>
	<g id="Facebook_1_">
		<g>
			<path fill="#F4F6F9" d="M11.045,4.828v-6.875h0.005c-0.005-0.045-0.005-0.095-0.005-0.144c0-0.893,0.717-1.613,1.608-1.613h5.461
				v-2.775v-1.072v-3.848h-8.047v0.027c-4.153,0.324-7.42,3.794-7.42,8.028v8.271h-4.762v7.704h4.762v17.967h8.402V11.604h5.469
				l0.848-6.776H11.045L11.045,4.828z"/>
		</g>
	</g>
</g>
</svg>
