<?xml version="1.0" encoding="utf-8"?>
<!-- Generator: Adobe Illustrator 16.0.0, SVG Export Plug-In . SVG Version: 6.00 Build 0)  -->
<!DOCTYPE svg PUBLIC "-//W3C//DTD SVG 1.1//EN" "http://www.w3.org/Graphics/SVG/1.1/DTD/svg11.dtd">
<svg version="1.1" id="Слой_1" xmlns="http://www.w3.org/2000/svg" xmlns:xlink="http://www.w3.org/1999/xlink" x="0px" y="0px"
	 width="512px" height="512px" viewBox="0 0 512 512" enable-background="new 0 0 512 512" xml:space="preserve">
<g id="facebook">
	<g>
		<path fill="#2556A0" d="M511.991,256.008c0,141.387-114.6,255.98-255.987,255.98c-141.396,0-255.996-114.595-255.996-255.98
			C-0.004,114.619,114.607,0.012,255.996,0.012C397.393,0.012,512,114.619,511.991,256.008z"/>
		<path opacity="0.15" enable-background="new    " d="M265.074,370.74l-47.758,47.764l88.585,88.594
			c104.943-20.733,186.832-105.563,203.129-212.029L329.073,115.104L183.068,288.725L265.074,370.74z"/>
	</g>
	<g id="Facebook_1_">
		<g>
			<path fill="#F4F6F9" d="M277.996,233.047l0.008-49.664h0.047c-0.039-0.344-0.047-0.672-0.055-1.023
				c0-6.43,5.211-11.648,11.633-11.648h39.443l-0.008-20.055l0.008-7.742v-27.811h-58.146l-0.008,0.188
				c-30,2.313-53.602,27.389-53.602,57.967v59.797l-34.396-0.008v55.632h34.396v129.825h60.68V281.99h39.5l6.163-48.943H277.996z"/>
		</g>
	</g>
</g>
</svg>
