<?xml version="1.0" encoding="utf-8"?>
<!-- Generator: Adobe Illustrator 16.0.0, SVG Export Plug-In . SVG Version: 6.00 Build 0)  -->
<!DOCTYPE svg PUBLIC "-//W3C//DTD SVG 1.1//EN" "http://www.w3.org/Graphics/SVG/1.1/DTD/svg11.dtd">
<svg version="1.1" id="Слой_1" xmlns="http://www.w3.org/2000/svg" xmlns:xlink="http://www.w3.org/1999/xlink" x="0px" y="0px"
	 width="512px" height="512px" viewBox="0 0 512 512" enable-background="new 0 0 512 512" xml:space="preserve">
<radialGradient id="SVGID_1_" cx="255.9998" cy="256" r="255.99" gradientUnits="userSpaceOnUse">
	<stop  offset="0" style="stop-color:#FFFFFF"/>
	<stop  offset="0.7732" style="stop-color:#FFFFFF"/>
	<stop  offset="0.9005" style="stop-color:#FFFFFF"/>
	<stop  offset="0.9495" style="stop-color:#FDFDFD"/>
	<stop  offset="0.9691" style="stop-color:#F6F6F6"/>
	<stop  offset="0.9835" style="stop-color:#EAEAEA"/>
	<stop  offset="0.9952" style="stop-color:#D9D9D9"/>
	<stop  offset="1" style="stop-color:#CFCFCF"/>
</radialGradient>
<path fill="url(#SVGID_1_)" d="M511.991,256.008c0,141.387-114.6,255.98-255.987,255.98c-141.396,0-255.996-114.595-255.996-255.98
	C-0.004,114.619,114.607,0.012,255.996,0.012C397.393,0.012,512,114.619,511.991,256.008z"/>
<linearGradient id="SVGID_2_" gradientUnits="userSpaceOnUse" x1="218.071" y1="211.6851" x2="440.202" y2="433.816">
	<stop  offset="0" style="stop-color:#000000"/>
	<stop  offset="0.4712" style="stop-color:#787878"/>
	<stop  offset="0.5548" style="stop-color:#878787"/>
	<stop  offset="0.7145" style="stop-color:#ADADAD"/>
	<stop  offset="0.9321" style="stop-color:#EAEAEA"/>
	<stop  offset="1" style="stop-color:#FFFFFF"/>
</linearGradient>
<path opacity="0.15" fill="url(#SVGID_2_)" enable-background="new    " d="M253.065,370.74l-35.748,47.764l88.585,88.594
	c104.943-20.733,186.832-105.563,203.129-212.029L329.073,115.104L183.068,246.688L253.065,370.74z"/>
<g>
	<path fill="#DD4B39" stroke="#DD4B39" stroke-width="0.094" d="M256.083,33.597c1.159,0.662,2.153,1.656,3.065,2.65
		c34.215,34.38,68.512,68.76,102.641,103.223c-21.539,21.208-42.746,42.747-64.119,64.037c-8.035,8.119-16.238,16.072-24.189,24.356
		c-5.965-14.415-11.682-28.912-17.397-43.41c0-15.077,0.083-30.154,0-45.314C256,104.013,255.917,68.805,256.083,33.597
		L256.083,33.597z"/>
	<path fill="#EF851C" stroke="#EF851C" stroke-width="0.094" d="M149.961,139.139h106.122c0.083,15.16,0,30.237,0,45.314
		c-5.882,14.249-11.598,28.581-17.231,42.996c-1.823-0.994-3.148-2.485-4.557-3.977l-84.002-84.003L149.961,139.139z"/>
	<path fill="#7E3794" stroke="#7E3794" stroke-width="0.094" d="M361.789,139.47l0.332-0.249c-0.082,35.292-0.082,70.665,0,105.956
		h-45.646c-14.248-5.964-28.664-11.432-42.996-17.313c7.953-8.284,16.154-16.237,24.191-24.356
		C319.043,182.217,340.25,160.678,361.789,139.47L361.789,139.47z"/>
	<path fill="#FFBB1B" stroke="#FFBB1B" stroke-width="0.094" d="M132.647,156.949c5.964-5.716,11.515-11.847,17.646-17.479
		l84.002,84.003c1.409,1.491,2.734,2.982,4.557,3.977c-1.905,1.408-4.308,1.905-6.462,2.899
		c-12.262,4.971-24.688,9.609-36.865,14.911c-15.162-0.165-30.322-0.083-45.481-0.083c-35.291-0.082-70.582,0.166-105.873-0.082
		C73.58,215.603,103.155,186.275,132.647,156.949L132.647,156.949z"/>
	<path fill="#1A8763" stroke="#1A8763" stroke-width="0.094" d="M150.044,245.177c15.161,0,30.321-0.082,45.481,0.083
		c14.332,5.882,28.664,11.433,42.995,17.231c-23.527,23.859-47.303,47.387-70.913,71.162c-5.965,5.635-11.35,11.848-17.646,17.148
		C149.961,315.595,149.878,280.386,150.044,245.177z"/>
	<path fill="#427FED" stroke="#427FED" stroke-width="0.094" d="M316.477,245.177h45.645c35.209,0.083,70.5-0.082,105.709,0.083
		c-22.617,22.948-45.564,45.647-68.262,68.429c-12.592,12.51-25.02,25.184-37.611,37.529
		c-28.166-28.498-56.748-56.666-84.996-85.164c-1.16-1.242-2.402-2.318-3.813-3.148c2.402-1.49,5.055-2.236,7.621-3.313
		c11.93-4.805,23.859-9.445,35.705-14.415L316.477,245.177z"/>
	<path fill="#65B045" stroke="#65B045" stroke-width="0.094" d="M238.52,262.491c6.048,14.414,11.515,28.996,17.563,43.41
		c-0.083,15.076,0,30.236-0.083,45.314v72.902c-0.166,10.852,0.249,21.705-0.166,32.475c-1.741-0.828-2.817-2.402-4.226-3.729
		c-33.882-34.047-67.682-68.096-101.647-102.063c6.296-5.301,11.681-11.514,17.646-17.148
		C191.217,309.878,214.993,286.351,238.52,262.491z"/>
	<path fill="#43459D" stroke="#43459D" stroke-width="0.094" d="M273.149,262.905c1.408,0.83,2.65,1.906,3.811,3.148
		c28.25,28.498,56.83,56.666,84.998,85.164c-35.375-0.084-70.666,0.082-105.956,0c0.083-15.078,0-30.238,0.083-45.316
		C261.633,291.569,267.598,277.321,273.149,262.905L273.149,262.905z"/>
</g>
</svg>
