<?xml version="1.0" encoding="utf-8"?>
<!-- Generator: Adobe Illustrator 16.0.0, SVG Export Plug-In . SVG Version: 6.00 Build 0)  -->
<!DOCTYPE svg PUBLIC "-//W3C//DTD SVG 1.1//EN" "http://www.w3.org/Graphics/SVG/1.1/DTD/svg11.dtd">
<svg version="1.1" id="Слой_1" xmlns="http://www.w3.org/2000/svg" xmlns:xlink="http://www.w3.org/1999/xlink" x="0px" y="0px"
	 width="512px" height="512px" viewBox="0 0 512 512" enable-background="new 0 0 512 512" xml:space="preserve">
<g id="youtube">
	<g>
		<path fill="#FA2216" d="M511.993,256.008c0,141.387-114.606,255.988-255.995,255.988c-141.394,0-256.004-114.609-255.992-255.988
			C-0.006,114.611,114.605,0.004,255.998,0.004C397.387,0.004,511.993,114.619,511.993,256.008z"/>
		<path opacity="0.15" enable-background="new    " d="M322.794,149.539l-14.688-14.68l-4.789,34.188l-1.188,1.188l-29.586-29.594
			l-1.172,1.172l-36.978-36.975l-10.443,31.131l-31.398-31.389l2.492,37.764l20.055,20.047l-19.305,57.578l28.396,28.391
			l-8.976,8.998l-69.968-1.171l-10.392,144.936l110.61,110.608c3.492,0.141,7,0.266,10.531,0.266
			c124.67,0,228.487-89.141,251.284-207.154L337.364,134.93L322.794,149.539z"/>
	</g>
	<g id="You_tube_2_">
		<polygon fill="#F4F6F9" points="195.796,219.969 213.515,219.969 213.515,173.164 234.131,104.572 216.132,104.58 
			204.772,150.703 192.554,104.58 174.703,104.572 195.796,173.164 		"/>
		<path fill="#F4F6F9" d="M303.365,221.203c4.759,0,11.375-2.5,18.188-10.625v9.391h15.742v-85.125h-15.742v64.602
			c-1.913,2.422-6.188,6.391-9.249,6.391c-3.359,0-4.195-2.32-4.195-5.742v-65.234h-15.733V206
			C292.373,214.391,294.928,221.203,303.365,221.203z"/>
		<path fill="#F4F6F9" d="M233.326,198.742c0,14.992,7.797,22.82,23.069,22.82c12.656,0,22.617-8.523,22.617-22.828v-41.719
			c0-13.313-9.867-22.875-22.617-22.867c-13.867,0-23.069,9.211-23.069,22.867V198.742L233.326,198.742z M249.529,158.43
			c0-4.664,2.134-8.133,6.548-8.133c4.827,0,6.897,3.367,6.897,8.125l0.008,39.594c0,4.641-2.358,8.047-6.586,8.047
			c-4.352,0-6.867-3.563-6.867-8.047V158.43L249.529,158.43z"/>
		<path fill="#F4F6F9" d="M337.755,313.998c-5.555,0-6.695,3.93-6.695,9.484v8.219h13.242v-8.219
			C344.294,318.021,343.146,313.998,337.755,313.998z"/>
		<path fill="#F4F6F9" d="M279.482,314.498c-1.03,0.531-2.078,1.352-3.086,2.484v50.5c1.219,1.336,2.398,2.28,3.547,2.852
			c2.438,1.242,6.009,1.352,7.664-0.836c0.867-1.148,1.306-2.984,1.306-5.594V322.06c0-2.727-0.539-4.813-1.603-6.227
			C285.498,313.428,282.107,313.154,279.482,314.498z"/>
		<path fill="#F4F6F9" d="M360.668,244.242l-209.349-0.008c-12.852,0-23.266,10.469-23.258,23.396l-0.008,116.959
			c0,12.93,10.414,23.391,23.266,23.391h209.349c12.852,0,23.272-10.461,23.272-23.391V267.631
			C383.941,254.703,373.52,244.242,360.668,244.242z M186.609,382.904h-16.883v-93.922h-17.453v-15.961h51.796v15.961h-17.46
			V382.904L186.609,382.904z M246.646,382.904h-14.992v-8.938c-2.758,3.313-5.641,5.813-8.607,7.531
			c-8.094,4.654-19.18,4.561-19.18-11.883v-67.742h14.983v62.109c0,3.272,0.781,5.483,3.984,5.483c2.929,0,6.991-3.781,8.818-6.078
			v-61.516h14.992L246.646,382.904L246.646,382.904z M304.326,366.115c0,10.055-3.728,17.836-13.703,17.836
			c-5.492,0-10.056-2.023-14.228-7.267v6.22h-15.133V273.021h15.133v35.383c3.375-4.141,7.978-7.57,13.328-7.57
			c10.978,0,14.603,9.328,14.603,20.32V366.115z M359.723,344.279H331.06v15.297c0,6.078,0.517,11.328,6.547,11.328
			c6.32,0,6.688-4.273,6.688-11.328v-5.633l15.429,0.008v6.078c0,15.625-6.672,25.061-22.46,25.061
			c-14.313,0-21.624-10.459-21.624-25.045v-36.391c0-14.078,9.249-23.836,22.765-23.836c14.383,0,21.319,9.18,21.319,23.836l0,0
			L359.723,344.279L359.723,344.279z"/>
	</g>
</g>
</svg>
