<?xml version="1.0" encoding="utf-8"?>
<!-- Generator: Adobe Illustrator 16.0.0, SVG Export Plug-In . SVG Version: 6.00 Build 0)  -->
<!DOCTYPE svg PUBLIC "-//W3C//DTD SVG 1.1//EN" "http://www.w3.org/Graphics/SVG/1.1/DTD/svg11.dtd">
<svg version="1.1" id="Capa_1" xmlns="http://www.w3.org/2000/svg" xmlns:xlink="http://www.w3.org/1999/xlink" x="0px" y="0px"
	 width="1245.112px" height="339px" viewBox="58.487 113.566 1245.112 339" enable-background="new 58.487 113.566 1245.112 339"
	 xml:space="preserve">
<g>
	<path fill="#C7C7C7" d="M1297.548,252.237c0,0-208,19.804-479.561,13.862c-204.421-4.471-362.632-16.962-469.364-27.725
		c-124.818-12.587-245.967-65.031-245.967-65.031v-4.415c0,0,118.028,52.503,247.145,66.366
		c157.068,16.864,342.139,24.787,445.43,27.291c317.472,7.694,505.095-13.64,505.095-13.64L1297.548,252.237z"/>
	<path fill="#C7C7C7" d="M1297.551,350.158c0,0-208.001-19.805-479.563-13.863c-204.42,4.473-362.631,16.963-469.362,27.726
		c-124.82,12.587-239.784,65.031-239.784,65.031v4.415c0,0,111.843-52.504,240.961-66.366
		c157.067-16.864,342.138-24.786,445.431-27.29c317.473-7.695,505.093,13.639,505.093,13.639L1297.551,350.158z"/>
	<path fill="#C7C7C7" d="M1300.824,272.26c0,0-207.937,18.742-479.498,12.8c-204.421-4.472-369.255-6.896-476.926-14.145
		c-160.797-10.824-241.745-32.822-241.745-32.822l1.767-5.147c0,0,81.616,24.518,247.852,34.265
		c159.054,9.327,342.942,12.893,446.234,15.396c317.471,7.695,505.09-13.64,505.09-13.64L1300.824,272.26z"/>
	<path fill="#C7C7C7" d="M1300.824,329.906c0,0-207.937-18.742-479.498-12.801c-204.421,4.472-369.255,6.896-476.926,14.145
		c-160.797,10.825-236.444,32.823-236.444,32.823l7.068,4.264c0,0,71.014-23.633,237.25-33.383
		c159.054-9.327,342.942-12.893,446.234-15.396c317.471-7.695,505.09,13.641,505.09,13.641L1300.824,329.906z"/>
	<path fill="#C7C7C7" d="M1296.686,304.271c0,0-226.347-4.475-497.619-4.085c-204.576,0.295-338.912-1.674-447.539-1.497
		c-161.95,0.262-249.689-1.407-249.689-1.407v5.104c0,0,82.861,0.177,250.004,0.177c154.15,0,341.324-1.299,444.713-1.32
		c315.844-0.063,500.131,5.865,500.131,5.865L1296.686,304.271L1296.686,304.271z"/>
</g>
<g>
	
		<linearGradient id="SVGID_1_" gradientUnits="userSpaceOnUse" x1="377.175" y1="24.396" x2="1358.5254" y2="24.396" gradientTransform="matrix(1 0 0 -1 -254.2695 240.7725)">
		<stop  offset="0" style="stop-color:#000000"/>
		<stop  offset="0.1935" style="stop-color:#454545"/>
		<stop  offset="0.3065" style="stop-color:#919191"/>
		<stop  offset="0.4731" style="stop-color:#525252"/>
		<stop  offset="0.6129" style="stop-color:#919191"/>
		<stop  offset="0.6989" style="stop-color:#525252"/>
		<stop  offset="0.8656" style="stop-color:#333333"/>
		<stop  offset="1" style="stop-color:#000000"/>
	</linearGradient>
	<path fill="url(#SVGID_1_)" d="M1296.731,250.543c0,0-208,19.805-479.562,13.864c-204.42-4.472-362.631-16.963-469.363-27.727
		c-124.819-12.587-245.967-65.031-245.967-65.031v-4.416c0,0,118.028,52.503,247.145,66.367
		c157.068,16.864,342.139,24.786,445.43,27.291c317.472,7.696,505.095-13.641,505.095-13.641L1296.731,250.543z"/>
	
		<linearGradient id="SVGID_2_" gradientUnits="userSpaceOnUse" x1="383.2517" y1="1282.5547" x2="1359.5356" y2="1282.5547" gradientTransform="matrix(1 0 0 1 -254.2695 -899.9219)">
		<stop  offset="0" style="stop-color:#000000"/>
		<stop  offset="0.1935" style="stop-color:#454545"/>
		<stop  offset="0.3065" style="stop-color:#919191"/>
		<stop  offset="0.4731" style="stop-color:#525252"/>
		<stop  offset="0.6129" style="stop-color:#919191"/>
		<stop  offset="0.6989" style="stop-color:#525252"/>
		<stop  offset="0.8656" style="stop-color:#333333"/>
		<stop  offset="1" style="stop-color:#000000"/>
	</linearGradient>
	<path fill="url(#SVGID_2_)" d="M1296.734,348.466c0,0-208.001-19.804-479.563-13.862c-204.421,4.472-362.631,16.962-469.363,27.726
		c-124.819,12.587-239.783,65.03-239.783,65.03v4.416c0,0,111.843-52.504,240.96-66.366
		c157.068-16.864,342.139-24.787,445.432-27.291c317.473-7.695,505.093,13.64,505.093,13.64L1296.734,348.466z"/>
	
		<linearGradient id="SVGID_3_" gradientUnits="userSpaceOnUse" x1="377.2327" y1="222.8604" x2="1361.2653" y2="222.8604" gradientTransform="matrix(1 0 0 -1 -254.2695 480.752)">
		<stop  offset="0" style="stop-color:#000000"/>
		<stop  offset="0.1935" style="stop-color:#454545"/>
		<stop  offset="0.3065" style="stop-color:#919191"/>
		<stop  offset="0.4731" style="stop-color:#525252"/>
		<stop  offset="0.6129" style="stop-color:#919191"/>
		<stop  offset="0.6989" style="stop-color:#525252"/>
		<stop  offset="0.8656" style="stop-color:#333333"/>
		<stop  offset="1" style="stop-color:#000000"/>
	</linearGradient>
	<path fill="url(#SVGID_3_)" d="M1300.006,270.567c0,0-207.936,18.742-479.497,12.8c-204.421-4.471-369.256-6.896-476.927-14.144
		C182.786,258.397,101.839,236.4,101.839,236.4l1.767-5.147c0,0,81.615,24.517,247.851,34.266
		c159.054,9.327,342.943,12.893,446.235,15.396c317.47,7.695,505.09-13.641,505.09-13.641L1300.006,270.567z"/>
	
		<linearGradient id="SVGID_4_" gradientUnits="userSpaceOnUse" x1="382.4397" y1="1386.3164" x2="1362.1289" y2="1386.3164" gradientTransform="matrix(1 0 0 1 -254.2695 -1045.8701)">
		<stop  offset="0" style="stop-color:#000000"/>
		<stop  offset="0.1935" style="stop-color:#454545"/>
		<stop  offset="0.3065" style="stop-color:#919191"/>
		<stop  offset="0.4731" style="stop-color:#525252"/>
		<stop  offset="0.6129" style="stop-color:#919191"/>
		<stop  offset="0.6989" style="stop-color:#525252"/>
		<stop  offset="0.8656" style="stop-color:#333333"/>
		<stop  offset="1" style="stop-color:#000000"/>
	</linearGradient>
	<path fill="url(#SVGID_4_)" d="M1300.006,328.215c0,0-207.936-18.743-479.497-12.802c-204.421,4.472-369.256,6.896-476.927,14.145
		c-160.796,10.826-236.443,32.824-236.443,32.824l7.068,4.263c0,0,71.013-23.634,237.249-33.382
		c159.054-9.328,342.943-12.893,446.235-15.397c317.47-7.696,505.09,13.641,505.09,13.641L1300.006,328.215z"/>
	
		<linearGradient id="SVGID_5_" gradientUnits="userSpaceOnUse" x1="376.2922" y1="1346.3438" x2="1354.5696" y2="1346.3438" gradientTransform="matrix(1 0 0 1 -254.2695 -1045.8701)">
		<stop  offset="0" style="stop-color:#000000"/>
		<stop  offset="0.1935" style="stop-color:#454545"/>
		<stop  offset="0.3065" style="stop-color:#919191"/>
		<stop  offset="0.4731" style="stop-color:#525252"/>
		<stop  offset="0.6129" style="stop-color:#919191"/>
		<stop  offset="0.6989" style="stop-color:#525252"/>
		<stop  offset="0.8656" style="stop-color:#333333"/>
		<stop  offset="1" style="stop-color:#000000"/>
	</linearGradient>
	<path fill="url(#SVGID_5_)" d="M1294.941,302.959c0,0-225.418-4.856-496.69-4.467c-204.576,0.295-338.913-1.673-447.539-1.497
		c-161.95,0.263-249.689-1.407-249.689-1.407v5.105c0,0,82.861,0.176,250.003,0.176c154.15,0,341.325-1.301,444.714-1.321
		c315.844-0.062,499.202,5.813,499.202,5.813L1294.941,302.959L1294.941,302.959z"/>
</g>
<path fill="#C7C7C7" d="M182.015,299.548c-1.122-2.884-2.474-5.639-4.097-8.171c-1.593-2.552-3.343-4.972-5.336-7.13
	c-7.81-8.738-18.321-14.602-29.432-15.974c-2.762-0.347-5.548-0.421-8.271-0.207c-2.72,0.279-5.39,0.723-7.911,1.515
	c-0.686,0.188-1.354,0.41-2.011,0.651c-2.032-8.216-4.019-16.573-5.942-25.047c6.54-8.92,12.743-18.279,17.892-28.975
	c3.326-7.036,6.247-14.779,7.446-23.056c0.644-4.112,0.843-8.266,0.775-12.322c-0.056-2.051-0.188-3.961-0.354-6.068l-0.287-2.687
	l-0.386-2.969c-1.082-7.703-3.061-15.27-6.057-22.554c-2.997-7.265-6.893-14.281-12.613-20.366c-1.441-1.52-3.006-2.969-4.8-4.293
	c-1.791-1.318-3.786-2.556-6.245-3.408c-1.211-0.432-2.589-0.737-4.075-0.836c-0.749-0.042-1.516-0.035-2.322,0.073
	c-0.287,0.037-0.203,0.007-0.787,0.11l-0.328,0.073c-0.329,0.071-1.141,0.292-1.473,0.44c-1.719,0.652-3.1,1.715-4.125,2.798
	c-1.038,1.094-1.769,2.221-2.353,3.309c-2.206,4.362-2.75,8.295-3.227,12.144c-0.404,3.843-0.472,7.572-0.412,11.252
	c0.421,14.69,2.432,28.755,4.838,42.573c2.087,12.152,4.519,24.056,7.133,35.748c-3.534,5.057-7.199,10.099-10.808,15.113
	c-2.088,2.888-4.178,5.648-6.277,8.632c-2.194,3.09-4.287,6.249-6.206,9.514c-3.853,6.52-7.055,13.421-9.513,20.565
	c-2.5,7.123-4.167,14.535-4.828,22.037c-0.697,7.484-0.381,15.064,1.198,22.375c0.335,1.828,0.895,3.625,1.368,5.417
	c0.619,1.769,1.135,3.544,1.903,5.246c1.363,3.453,3.199,6.698,5.224,9.758c4.045,6.153,9.56,11.162,15.632,14.772l2.301,1.306
	l2.375,1.129c1.527,0.78,3.316,1.364,4.932,2.003l2.306,0.701l1.271,0.385l1.228,0.29l2.438,0.596l2.466,0.472
	c6.564,1.19,13.237,1.406,19.708,0.642c4.494-0.524,8.889-1.529,13.125-2.943c0.921,2.94,1.823,5.862,2.688,8.749
	c1.573,5.15,2.915,10.249,4.121,15.24c1.181,4.995,2.208,9.898,2.758,14.704c0.278,2.399,0.458,4.767,0.468,7.087
	c-0.004,0.561,0.028,1.21-0.006,1.684l-0.1,1.78c-0.137,1.087-0.242,2.132-0.49,3.217c-0.843,4.305-2.699,8.225-5.202,11.398
	c-2.543,3.145-5.705,5.537-9.125,6.982l-1.295,0.489l-0.322,0.125c-0.031,0.013-0.154,0.06-0.111,0.039l-0.182,0.057l-0.723,0.223
	c-0.883,0.248-1.698,0.436-2.604,0.591c-1.759,0.291-3.503,0.434-5.191,0.318c-1.687-0.116-3.305-0.408-4.818-0.858
	c-1.503-0.497-2.876-1.164-4.102-1.938c-2.437-1.601-4.199-3.694-5.224-5.928c-0.542-1.101-0.868-2.266-1.093-3.398
	c-0.127-0.562-0.202-1.136-0.251-1.694l-0.047-0.844c0.068,0.236,0.012-0.012,0.023,0.004l-0.014-0.132l-0.026-0.269l-0.053-0.529
	c0.033-0.816,0.045-1.974,0.24-2.876c0.173-0.939,0.419-1.817,0.714-2.601c0.39-1.01,0.872-1.825,1.382-2.495
	c2.496,1.304,5.41,1.871,8.408,1.425c7.54-1.121,12.744-8.146,11.621-15.688c-1.123-7.542-8.054-13.014-15.617-12.033
	c-5.389,0.698-10.681,3.046-14.977,9.12c-3.437,4.853-5.752,11.392-5.606,17.943c0.012,1.645,0.161,3.317,0.461,5.001
	c0.323,1.727,0.686,3.275,1.338,5.197c1.177,3.067,3.107,6.524,5.682,9.413c2.603,2.917,5.958,5.369,9.753,6.895
	c1.882,0.789,3.875,1.37,5.921,1.691c2.039,0.372,4.137,0.516,6.251,0.436c2.112-0.084,4.245-0.361,6.354-0.88
	c1.026-0.251,2.137-0.598,3.168-0.978l0.709-0.27l0.416-0.168l0.385-0.174l1.529-0.69c1.996-1.041,3.938-2.26,5.715-3.751
	c1.757-1.509,3.368-3.234,4.772-5.144c2.736-3.869,4.693-8.429,5.481-13.322c0.228-1.199,0.327-2.501,0.428-3.764l0.039-1.782
	c0.027-0.717-0.027-1.261-0.034-1.902c-0.069-2.479-0.317-4.954-0.665-7.441c-1.354-9.951-4.124-20.009-7.021-30.449
	c-0.853-2.977-1.721-5.998-2.602-9.042c6.687-2.653,12.884-6.388,18.178-11.193c4.691-4.287,8.712-9.375,11.569-15.11
	c1.469-2.85,2.577-5.879,3.402-8.971c0.433-1.548,0.732-3.118,0.996-4.697c0.159-0.765,0.205-1.676,0.303-2.516
	c0.085-0.844,0.173-1.77,0.189-2.369l0.103-2.026l-0.084-2.662c-0.092-1.609-0.246-3.223-0.542-4.783
	C184.021,305.465,183.167,302.42,182.015,299.548z M109.095,128.323c0.042-0.01-0.033,0.016-0.106,0.036
	C109.072,128.304,109.126,128.281,109.095,128.323z M108.913,128.443l0.045-0.006C108.909,128.443,108.873,128.448,108.913,128.443z
	 M108.071,189.143c-0.997-6.825-1.853-13.7-2.485-20.601c-0.644-6.894-1.021-13.834-0.84-20.667
	c0.093-3.406,0.317-6.795,0.805-10.021c0.477-3.171,1.295-6.384,2.47-8.35c0.389-0.67,0.772-1.014,0.96-1.14l0.258-0.043
	c-0.366,0.065-0.057,0.029-0.12,0.047c0.083-0.006,0.209,0.014,0.354,0.037c0.294,0.062,0.68,0.153,1.138,0.366
	c1.873,0.773,4.112,2.822,5.907,5.173c3.668,4.83,6.175,11,7.869,17.299c1.676,6.338,2.54,12.99,3.012,19.607l0.135,2.408
	l0.093,2.701c0,1.491,0.01,3.187-0.058,4.733c-0.172,3.145-0.533,6.195-1.218,9.162c-1.295,5.933-3.83,11.681-6.979,17.419
	c-1.927,3.422-4.047,6.839-6.271,10.248C111.244,208.177,109.519,198.718,108.071,189.143z M133.264,361.092
	c-2.911,0.341-5.875,0.445-8.847,0.266c-2.974-0.118-5.951-0.573-8.895-1.223l-2.208-0.507l-2.184-0.639l-1.092-0.328l-1.007-0.373
	l-2.26-0.843c-2.591-1.158-5.287-2.49-7.683-4.271c-2.402-1.734-4.66-3.686-6.539-5.979c-1.908-2.257-3.628-4.683-4.959-7.343
	c-1.371-2.634-2.436-5.435-3.173-8.347c-0.441-1.425-0.65-2.936-0.966-4.399c-0.172-1.508-0.456-2.983-0.507-4.509
	c-0.872-12.161,2.396-24.627,7.738-36.137c2.7-5.77,5.976-11.329,9.636-16.688c1.836-2.678,3.76-5.313,5.811-7.867
	c2.177-2.76,4.359-5.523,6.545-8.297c0.274-0.356,0.548-0.719,0.82-1.077c1.729,6.951,3.508,13.8,5.335,20.561
	c-0.194,0.117-0.377,0.234-0.589,0.361l-1.551,0.959c-0.955,0.679-1.916,1.31-2.815,2.023c-7.232,5.698-12.046,13.125-14.179,20.258
	c-2.23,7.142-2.119,13.853-0.925,19.296c1.238,5.463,3.58,9.728,6.139,12.53c2.51,2.872,5.139,4.194,6.875,4.834
	c0.44,0.147,0.828,0.28,1.157,0.391c0.335,0.067,0.616,0.123,0.836,0.163c0.451,0.086,0.678,0.132,0.678,0.132
	s-0.184-0.146-0.537-0.431c-0.363-0.276-0.902-0.718-1.483-1.317c-1.179-1.218-2.721-3.225-3.776-6.128
	c-1.075-2.882-1.711-6.649-1.36-10.95c0.303-4.285,1.624-9.094,4.188-13.644c2.598-4.539,6.502-8.726,11.744-11.764
	c0.07-0.049,0.15-0.085,0.222-0.13c1.637,5.663,3.311,11.259,5.022,16.759c3.643,11.864,7.392,23.333,11.039,34.404
	c1.821,5.535,3.609,10.975,5.37,16.314c0.099,0.311,0.191,0.613,0.29,0.926C141.416,359.586,137.404,360.63,133.264,361.092z
	 M170.759,318.597c1.128,8.577-1.496,18.982-8.385,27.123c-3.62,4.412-8.376,8.123-13.802,10.83
	c-4.744-16.364-9.771-33.61-14.665-51.686c-1.568-5.832-3.129-11.747-4.681-17.742c0.035-0.011,0.062-0.02,0.098-0.027
	c0.707-0.186,1.397-0.423,2.127-0.533c2.868-0.619,5.917-0.595,9.085-0.083c6.301,1.142,13.109,4.685,18.817,10.259
	c2.836,2.787,5.412,6.04,7.421,9.695c1.009,1.828,1.881,3.748,2.541,5.754c0.373,0.998,0.602,2.028,0.871,3.063l0.17,0.782
	l0.084,0.393l0.044,0.199c0.028,0.293,0.014-0.183,0.027-0.034L170.759,318.597z"/>
<path fill="#D10000" d="M178.336,301.588c-1.122-2.885-2.474-5.64-4.097-8.172c-1.593-2.552-3.343-4.972-5.336-7.13
	c-7.81-8.737-18.321-14.602-29.432-15.974c-2.762-0.348-5.548-0.422-8.271-0.208c-2.72,0.279-5.391,0.723-7.911,1.517
	c-0.686,0.186-1.354,0.408-2.011,0.649c-2.031-8.215-4.018-16.572-5.942-25.046c6.54-8.92,12.742-18.279,17.892-28.975
	c3.326-7.036,6.247-14.779,7.446-23.055c0.645-4.112,0.843-8.266,0.775-12.321c-0.056-2.051-0.188-3.962-0.354-6.068l-0.286-2.687
	l-0.387-2.969c-1.081-7.702-3.06-15.27-6.057-22.554c-2.998-7.265-6.893-14.281-12.613-20.366c-1.442-1.52-3.006-2.97-4.801-4.293
	c-1.79-1.317-3.786-2.555-6.245-3.408c-1.211-0.432-2.589-0.737-4.075-0.835c-0.749-0.042-1.516-0.036-2.322,0.072
	c-0.287,0.037-0.203,0.007-0.787,0.11l-0.328,0.073c-0.329,0.071-1.141,0.292-1.473,0.441c-1.719,0.652-3.1,1.715-4.125,2.798
	c-1.038,1.094-1.769,2.221-2.353,3.309c-2.206,4.362-2.75,8.295-3.227,12.143c-0.405,3.843-0.473,7.572-0.413,11.253
	c0.421,14.689,2.432,28.754,4.838,42.573c2.087,12.153,4.52,24.057,7.134,35.749c-3.534,5.056-7.199,10.098-10.807,15.113
	c-2.089,2.889-4.178,5.648-6.277,8.633c-2.194,3.09-4.287,6.249-6.206,9.514c-3.853,6.52-7.055,13.421-9.513,20.566
	c-2.5,7.122-4.167,14.533-4.828,22.035c-0.697,7.485-0.381,15.064,1.198,22.376c0.335,1.827,0.895,3.624,1.368,5.417
	c0.619,1.769,1.135,3.544,1.903,5.246c1.362,3.452,3.199,6.698,5.223,9.758c4.045,6.153,9.56,11.162,15.632,14.771l2.3,1.307
	l2.375,1.129c1.527,0.78,3.316,1.363,4.932,2.003l2.306,0.701l1.271,0.384l1.228,0.291l2.438,0.596l2.466,0.472
	c6.564,1.19,13.237,1.405,19.708,0.643c4.495-0.525,8.89-1.531,13.125-2.944c0.921,2.939,1.823,5.863,2.688,8.748
	c1.573,5.151,2.914,10.25,4.121,15.242c1.182,4.993,2.208,9.897,2.758,14.702c0.278,2.4,0.459,4.768,0.468,7.089
	c-0.004,0.559,0.028,1.21-0.006,1.683l-0.1,1.779c-0.137,1.088-0.243,2.133-0.49,3.218c-0.844,4.306-2.699,8.224-5.203,11.397
	c-2.543,3.146-5.705,5.538-9.125,6.982l-1.295,0.489l-0.322,0.126c-0.031,0.012-0.154,0.06-0.111,0.039l-0.182,0.056l-0.723,0.224
	c-0.883,0.247-1.698,0.436-2.604,0.591c-1.759,0.29-3.503,0.434-5.191,0.317c-1.687-0.115-3.306-0.407-4.819-0.856
	c-1.503-0.499-2.876-1.165-4.101-1.938c-2.437-1.601-4.2-3.693-5.224-5.929c-0.542-1.101-0.868-2.266-1.093-3.397
	c-0.127-0.563-0.202-1.136-0.251-1.694l-0.047-0.844c0.068,0.235,0.012-0.012,0.023,0.004l-0.014-0.133l-0.027-0.268l-0.053-0.528
	c0.033-0.818,0.045-1.975,0.24-2.877c0.173-0.939,0.419-1.817,0.714-2.601c0.39-1.01,0.872-1.826,1.382-2.495
	c2.496,1.303,5.41,1.871,8.408,1.426c7.541-1.123,12.744-8.146,11.621-15.688c-1.123-7.542-8.054-13.014-15.617-12.034
	c-5.389,0.698-10.681,3.046-14.977,9.12c-3.437,4.854-5.752,11.394-5.606,17.945c0.012,1.643,0.16,3.317,0.46,5
	c0.323,1.727,0.687,3.275,1.338,5.197c1.177,3.066,3.107,6.523,5.682,9.413c2.603,2.917,5.958,5.369,9.753,6.894
	c1.882,0.79,3.875,1.37,5.921,1.691c2.04,0.372,4.137,0.516,6.251,0.436c2.112-0.083,4.245-0.36,6.354-0.88
	c1.026-0.251,2.137-0.597,3.168-0.976l0.708-0.271l0.416-0.167l0.385-0.173l1.529-0.692c1.997-1.04,3.938-2.259,5.716-3.751
	c1.755-1.508,3.367-3.234,4.772-5.144c2.736-3.868,4.694-8.429,5.481-13.322c0.228-1.198,0.327-2.501,0.428-3.763l0.039-1.782
	c0.027-0.717-0.026-1.262-0.034-1.902c-0.069-2.48-0.317-4.955-0.665-7.44c-1.354-9.953-4.124-20.01-7.021-30.451
	c-0.853-2.977-1.721-5.998-2.602-9.042c6.687-2.653,12.884-6.387,18.178-11.193c4.691-4.285,8.712-9.375,11.569-15.11
	c1.469-2.849,2.577-5.878,3.401-8.97c0.434-1.549,0.733-3.118,0.997-4.697c0.159-0.764,0.206-1.677,0.303-2.517
	c0.085-0.843,0.173-1.77,0.189-2.368l0.103-2.026l-0.084-2.662c-0.092-1.61-0.246-3.223-0.542-4.783
	C180.342,307.504,179.488,304.459,178.336,301.588z M105.416,130.361c0.041-0.01-0.034,0.016-0.106,0.036
	C105.392,130.343,105.447,130.32,105.416,130.361z M105.234,130.482l0.045-0.006C105.229,130.482,105.194,130.487,105.234,130.482z
	 M104.391,191.181c-0.997-6.825-1.854-13.7-2.485-20.601c-0.644-6.894-1.02-13.834-0.84-20.667
	c0.093-3.406,0.316-6.795,0.804-10.021c0.477-3.17,1.295-6.384,2.47-8.351c0.389-0.67,0.773-1.014,0.96-1.14l0.258-0.043
	c-0.366,0.065-0.057,0.029-0.12,0.046c0.083-0.006,0.208,0.014,0.354,0.037c0.294,0.062,0.679,0.153,1.137,0.366
	c1.873,0.773,4.112,2.822,5.907,5.174c3.668,4.83,6.175,11,7.869,17.299c1.675,6.338,2.54,12.99,3.012,19.607l0.135,2.408
	l0.093,2.701c0,1.491,0.009,3.187-0.058,4.733c-0.172,3.145-0.533,6.195-1.217,9.162c-1.295,5.933-3.83,11.681-6.979,17.418
	c-1.927,3.423-4.047,6.84-6.271,10.249C107.565,210.215,105.84,200.756,104.391,191.181z M129.585,363.131
	c-2.912,0.341-5.875,0.446-8.848,0.266c-2.974-0.118-5.951-0.573-8.894-1.223l-2.208-0.506l-2.184-0.641l-1.092-0.326l-1.007-0.374
	l-2.259-0.843c-2.591-1.159-5.288-2.489-7.684-4.272c-2.402-1.733-4.66-3.686-6.539-5.979c-1.907-2.257-3.627-4.682-4.959-7.343
	c-1.371-2.633-2.436-5.434-3.173-8.347c-0.441-1.425-0.65-2.936-0.966-4.399c-0.173-1.508-0.456-2.983-0.507-4.51
	c-0.872-12.16,2.396-24.626,7.738-36.136c2.7-5.77,5.976-11.329,9.637-16.687c1.836-2.679,3.76-5.314,5.81-7.869
	c2.177-2.759,4.359-5.522,6.545-8.297c0.274-0.354,0.546-0.719,0.82-1.076c1.73,6.951,3.508,13.8,5.335,20.561
	c-0.194,0.117-0.378,0.235-0.589,0.361l-1.551,0.959c-0.955,0.679-1.916,1.31-2.815,2.023c-7.232,5.698-12.046,13.125-14.178,20.258
	c-2.23,7.142-2.12,13.854-0.925,19.295c1.238,5.463,3.58,9.729,6.139,12.531c2.51,2.871,5.139,4.194,6.875,4.834
	c0.441,0.147,0.828,0.279,1.157,0.39c0.335,0.068,0.616,0.124,0.836,0.165c0.451,0.084,0.678,0.131,0.678,0.131
	s-0.184-0.146-0.537-0.431c-0.363-0.276-0.902-0.718-1.483-1.317c-1.179-1.218-2.722-3.225-3.776-6.129
	c-1.074-2.881-1.711-6.648-1.361-10.949c0.305-4.286,1.625-9.095,4.189-13.644c2.598-4.54,6.502-8.726,11.743-11.765
	c0.071-0.047,0.15-0.083,0.222-0.129c1.637,5.664,3.311,11.259,5.022,16.759c3.643,11.863,7.392,23.332,11.039,34.404
	c1.821,5.536,3.61,10.975,5.37,16.314c0.099,0.31,0.191,0.612,0.29,0.927C137.737,361.625,133.724,362.668,129.585,363.131z
	 M167.079,320.636c1.128,8.577-1.496,18.983-8.385,27.123c-3.62,4.412-8.376,8.123-13.801,10.829
	c-4.744-16.364-9.771-33.608-14.665-51.685c-1.568-5.832-3.129-11.748-4.681-17.742c0.036-0.01,0.062-0.02,0.098-0.026
	c0.707-0.187,1.397-0.424,2.127-0.534c2.868-0.619,5.917-0.596,9.085-0.083c6.301,1.142,13.109,4.684,18.817,10.258
	c2.836,2.788,5.412,6.042,7.421,9.697c1.009,1.827,1.881,3.746,2.541,5.752c0.373,0.999,0.602,2.028,0.871,3.065l0.17,0.781
	l0.084,0.393l0.044,0.199c0.029,0.293,0.014-0.184,0.027-0.035L167.079,320.636z"/>
</svg>
