<?xml version="1.0" encoding="utf-8"?>
<!-- Generator: Adobe Illustrator 16.0.0, SVG Export Plug-In . SVG Version: 6.00 Build 0)  -->
<!DOCTYPE svg PUBLIC "-//W3C//DTD SVG 1.1//EN" "http://www.w3.org/Graphics/SVG/1.1/DTD/svg11.dtd">
<svg version="1.1" id="Capa_1" xmlns="http://www.w3.org/2000/svg" xmlns:xlink="http://www.w3.org/1999/xlink" x="0px" y="0px"
	 width="1415px" height="382px" viewBox="0 0 1415 382" enable-background="new 0 0 1415 382" xml:space="preserve">
<g>
	<g>
		<path fill="#E0E0D8" d="M1401.645,178.023c0,0-235.554,22.431-543.089,15.701c-231.501-5.065-410.67-19.21-531.541-31.4
			C185.661,148.07,48.464,133.7,48.464,133.7v-5c0,0,133.663,14.437,279.884,30.136c177.875,19.098,387.463,28.07,504.438,30.906
			c359.525,8.717,572.005-15.447,572.005-15.447L1401.645,178.023z"/>
		<path fill="#E0E0D8" d="M1401.651,248.886c0,0-235.558-22.428-543.094-15.699c-231.501,5.064-410.67,19.209-531.538,31.398
			C185.664,278.839,55.47,295.188,55.47,295.188v5c0,0,126.659-16.417,272.884-32.116c177.872-19.098,387.461-28.067,504.438-30.903
			c359.527-8.715,572.003,15.444,572.003,15.444L1401.651,248.886z"/>
		<path fill="#E0E0D8" d="M1405.358,199.701c0,0-235.482,10.219-543.02,3.489c-231.502-5.063-418.172-7.813-540.104-16.023
			c-182.1-12.259-273.771-17.16-273.771-17.16l2.001-5.829c0,0,92.43,7.757,280.687,18.796
			c180.124,10.564,388.372,14.604,505.348,17.44c359.526,8.715,572-4.442,572-4.442L1405.358,199.701z"/>
		<path fill="#E0E0D8" d="M1405.358,232.958c0,0-235.482-16.223-543.02-9.492c-231.502,5.063-418.172,7.81-540.104,16.019
			c-182.1,12.26-267.768,19.154-267.768,19.154l8.006,4.828c0,0,80.422-8.746,268.679-19.787
			c180.124-10.563,388.372-14.601,505.348-17.437c359.526-8.717,572,10.44,572,10.44L1405.358,232.958z"/>
		<path fill="#E0E0D8" d="M1400.67,216.938c0,0-256.331-5.067-563.539-4.626c-231.677,0.334-383.808-1.896-506.825-1.695
			c-183.401,0.297-282.766-1.594-282.766-1.594v5.78c0,0,93.838,0.199,283.122,0.199c174.57,0,386.54-1.473,503.625-1.494
			c357.685-0.071,566.384,6.642,566.384,6.642L1400.67,216.938L1400.67,216.938z"/>
	</g>
	<g>
		<path fill="#FFFFFF" stroke="#FFFFFF" stroke-miterlimit="10" d="M419.443,267.23v-87.339c0-0.938-0.808-1.696-1.803-1.696
			c-0.997,0-1.804,0.758-1.804,1.696v82.216c-4.432-3.117-12.026-3.553-19.383-0.646c-9.658,3.822-15.237,11.953-12.457,18.161
			c2.779,6.208,12.862,8.147,22.52,4.325C415.443,280.416,420.865,273.205,419.443,267.23z"/>
		<path fill="#FFFFFF" stroke="#FFFFFF" stroke-miterlimit="10" d="M611.221,242.813v-69.241c0-0.745-0.641-1.344-1.432-1.344
			c-0.788,0-1.43,0.6-1.43,1.344v65.179c-3.515-2.468-9.535-2.818-15.368-0.513c-7.658,3.029-12.078,9.476-9.875,14.399
			c2.204,4.921,10.198,6.46,17.853,3.43C608.047,253.264,612.348,247.547,611.221,242.813z"/>
		<path fill="#FFFFFF" stroke="#FFFFFF" stroke-miterlimit="10" d="M814.833,225.435v-54.279c0-0.583-0.506-1.054-1.124-1.054
			c-0.62,0-1.12,0.471-1.12,1.054v51.096c-2.757-1.937-7.478-2.213-12.047-0.402c-6.003,2.376-9.469,7.43-7.742,11.287
			c1.729,3.857,7.993,5.063,13.996,2.687C812.345,233.629,815.717,229.146,814.833,225.435z"/>
		<path fill="#FFFFFF" stroke="#FFFFFF" stroke-miterlimit="10" d="M978.819,215.91v-51.563c0-0.554-0.476-1-1.063-1
			c-0.589,0-1.065,0.446-1.065,1v48.541c-2.617-1.842-7.103-2.102-11.444-0.381c-5.701,2.254-8.992,7.055-7.353,10.721
			c1.641,3.665,7.594,4.811,13.294,2.553C976.455,223.694,979.659,219.438,978.819,215.91z"/>
		<path fill="#FFFFFF" stroke="#FFFFFF" stroke-miterlimit="10" d="M1141.533,209.174v-48.985c0-0.525-0.452-0.95-1.012-0.95
			s-1.015,0.423-1.015,0.95V206.3c-2.486-1.749-6.746-1.995-10.869-0.361c-5.42,2.143-8.545,6.702-6.988,10.185
			c1.559,3.479,7.215,4.568,12.633,2.426C1139.289,216.568,1142.331,212.524,1141.533,209.174z"/>
		<path fill="#FFFFFF" stroke="#FFFFFF" stroke-miterlimit="10" d="M1299.484,203.922v-46.535c0-0.501-0.433-0.904-0.963-0.904
			s-0.962,0.403-0.962,0.904v43.805c-2.359-1.66-6.409-1.893-10.329-0.342c-5.146,2.036-8.116,6.368-6.637,9.677
			c1.479,3.307,6.854,4.341,11.998,2.304C1297.35,210.947,1300.24,207.105,1299.484,203.922z"/>
		<g opacity="0.5">
			<path fill="#FFFFFF" stroke="#FFFFFF" stroke-miterlimit="10" d="M250.052,308.864v-96.776c0-1.038-0.895-1.88-1.999-1.88
				c-1.104,0-2,0.842-2,1.88v91.101c-4.912-3.454-13.328-3.94-21.479-0.716c-10.701,4.236-16.883,13.246-13.802,20.126
				c3.081,6.875,14.25,9.027,24.954,4.793C245.617,323.475,251.628,315.483,250.052,308.864z"/>
			
				<line fill="#FFFFFF" stroke="#FFFFFF" stroke-width="3" stroke-miterlimit="10" x1="195.901" y1="314.612" x2="263.989" y2="314.612"/>
		</g>
	</g>
	<path fill="#C7C7C7" d="M138.338,211.591c-1.271-3.266-2.802-6.386-4.64-9.254c-1.804-2.89-3.786-5.63-6.043-8.074
		c-8.845-9.895-20.748-16.533-33.331-18.089c-3.128-0.393-6.283-0.477-9.367-0.232c-3.08,0.314-6.104,0.816-8.959,1.716
		c-0.776,0.212-1.533,0.464-2.277,0.735c-2.301-9.303-4.551-18.769-6.729-28.363c7.406-10.102,14.431-20.7,20.262-32.813
		c3.769-7.968,7.074-16.737,8.435-26.11c0.729-4.657,0.955-9.361,0.878-13.954c-0.063-2.322-0.213-4.486-0.4-6.872l-0.324-3.043
		l-0.438-3.362c-1.227-8.723-3.466-17.293-6.859-25.542c-3.395-8.228-7.806-16.173-14.284-23.064
		c-1.633-1.721-3.402-3.363-5.437-4.862c-2.027-1.492-4.287-2.894-7.072-3.86c-1.372-0.489-2.933-0.835-4.615-0.946
		c-0.848-0.048-1.717-0.04-2.63,0.082c-0.323,0.042-0.229,0.008-0.891,0.125l-0.371,0.083c-0.372,0.08-1.292,0.33-1.668,0.499
		c-1.946,0.738-3.511,1.942-4.671,3.169c-1.175,1.239-2.003,2.515-2.664,3.747c-2.498,4.94-3.114,9.394-3.654,13.752
		c-0.458,4.352-0.535,8.575-0.467,12.743c0.478,16.636,2.754,32.564,5.479,48.213c2.361,13.762,5.115,27.243,8.076,40.484
		c-4.002,5.727-8.15,11.438-12.237,17.115c-2.365,3.271-4.731,6.396-7.108,9.775c-2.485,3.498-4.854,7.076-7.028,10.773
		c-4.361,7.383-7.987,15.199-10.771,23.29c-2.831,8.065-4.719,16.459-5.468,24.956c-0.789,8.477-0.434,17.061,1.354,25.339
		c0.38,2.07,1.016,4.105,1.549,6.135c0.701,2.005,1.285,4.016,2.155,5.941c1.543,3.91,3.623,7.585,5.915,11.05
		c4.581,6.969,10.826,12.644,17.703,16.729l2.604,1.479l2.689,1.279c1.729,0.883,3.756,1.544,5.585,2.268l2.611,0.794l1.438,0.438
		l1.393,0.329l2.761,0.675l2.793,0.534c7.434,1.348,14.99,1.592,22.319,0.727c5.089-0.594,10.064-1.73,14.861-3.334
		c1.043,3.33,2.064,6.642,3.044,9.908c1.781,5.833,3.303,11.606,4.667,17.26c1.338,5.656,2.501,11.209,3.123,16.651
		c0.315,2.718,0.521,5.396,0.53,8.024c-0.005,0.636,0.032,1.37-0.007,1.906l-0.113,2.018c-0.155,1.229-0.272,2.415-0.555,3.644
		c-0.955,4.875-3.059,9.313-5.894,12.908c-2.88,3.561-6.461,6.271-10.334,7.907l-1.467,0.554l-0.364,0.142
		c-0.033,0.017-0.175,0.068-0.126,0.045l-0.206,0.063l-0.816,0.253c-1,0.28-1.923,0.493-2.948,0.669
		c-1.992,0.329-3.968,0.491-5.879,0.36c-1.91-0.132-3.743-0.462-5.457-0.974c-1.702-0.563-3.257-1.316-4.645-2.192
		c-2.762-1.813-4.758-4.186-5.916-6.714c-0.613-1.246-0.982-2.565-1.237-3.851c-0.146-0.636-0.229-1.286-0.284-1.918l-0.054-0.956
		c0.077,0.27,0.014-0.013,0.024,0.005l-0.016-0.147l-0.03-0.307l-0.06-0.599c0.037-0.925,0.051-2.235,0.271-3.257
		c0.196-1.064,0.477-2.06,0.811-2.945c0.439-1.144,0.985-2.065,1.563-2.826c2.826,1.479,6.126,2.119,9.521,1.614
		c8.539-1.271,14.432-9.225,13.16-17.766c-1.272-8.541-9.121-14.738-17.688-13.628c-6.103,0.791-12.096,3.448-16.961,10.328
		c-3.892,5.495-6.514,12.899-6.349,20.319c0.014,1.861,0.182,3.757,0.521,5.663c0.366,1.955,0.777,3.709,1.518,5.886
		c1.333,3.476,3.519,7.391,6.435,10.66c2.947,3.306,6.747,6.08,11.045,7.81c2.132,0.894,4.389,1.552,6.705,1.915
		c2.312,0.422,4.688,0.584,7.079,0.492c2.392-0.096,4.808-0.407,7.196-0.995c1.162-0.284,2.42-0.679,3.588-1.106l0.803-0.306
		l0.471-0.19l0.438-0.196l1.729-0.78c2.263-1.181,4.459-2.562,6.475-4.248c1.987-1.708,3.813-3.663,5.402-5.825
		c3.101-4.381,5.315-9.545,6.207-15.087c0.26-1.358,0.37-2.832,0.484-4.262l0.044-2.021c0.03-0.812-0.03-1.428-0.039-2.154
		c-0.078-2.809-0.358-5.608-0.753-8.427c-1.533-11.271-4.67-22.66-7.951-34.481c-0.966-3.371-1.947-6.793-2.945-10.24
		c7.571-3.005,14.592-7.233,20.587-12.676c5.313-4.854,9.864-10.617,13.102-17.112c1.663-3.229,2.918-6.657,3.854-10.159
		c0.489-1.753,0.828-3.531,1.129-5.319c0.18-0.864,0.23-1.896,0.343-2.849c0.097-0.956,0.195-2.004,0.214-2.684l0.116-2.295
		l-0.098-3.016c-0.104-1.822-0.276-3.648-0.612-5.417C140.61,218.291,139.643,214.843,138.338,211.591z M55.758,17.684
		c0.047-0.012-0.038,0.018-0.12,0.04C55.732,17.663,55.793,17.637,55.758,17.684z M55.552,17.82l0.053-0.007
		C55.547,17.82,55.507,17.826,55.552,17.82z M54.598,86.561c-1.129-7.729-2.099-15.515-2.813-23.33
		c-0.729-7.807-1.155-15.667-0.951-23.405c0.105-3.857,0.358-7.695,0.911-11.348c0.54-3.591,1.467-7.23,2.797-9.457
		c0.44-0.759,0.875-1.148,1.087-1.291l0.292-0.049c-0.414,0.074-0.063,0.033-0.136,0.053c0.094-0.007,0.236,0.016,0.4,0.042
		c0.333,0.07,0.77,0.173,1.286,0.414c2.121,0.876,4.657,3.196,6.689,5.859c4.154,5.47,6.993,12.457,8.911,19.591
		c1.896,7.178,2.876,14.711,3.411,22.205l0.151,2.727l0.105,3.059c0,1.688,0.011,3.609-0.065,5.36
		c-0.193,3.561-0.604,7.016-1.379,10.375c-1.467,6.719-4.337,13.228-7.901,19.727c-2.185,3.876-4.583,7.745-7.104,11.606
		C58.192,108.116,56.239,97.404,54.598,86.561z M83.129,281.287c-3.297,0.386-6.651,0.505-10.02,0.301
		c-3.367-0.134-6.739-0.646-10.072-1.385l-2.501-0.573l-2.473-0.724l-1.236-0.371l-1.141-0.423l-2.561-0.954
		c-2.935-1.313-5.985-2.82-8.701-4.838c-2.721-1.964-5.275-4.174-7.403-6.771c-2.16-2.556-4.108-5.303-5.616-8.313
		c-1.553-2.982-2.759-6.154-3.594-9.452c-0.5-1.614-0.736-3.325-1.096-4.982c-0.193-1.708-0.517-3.379-0.572-5.104
		c-0.987-13.771,2.713-27.889,8.763-40.924c3.058-6.533,6.768-12.829,10.913-18.897c2.079-3.032,4.258-6.018,6.58-8.909
		c2.466-3.125,4.937-6.256,7.412-9.396c0.311-0.403,0.618-0.813,0.929-1.222c1.959,7.873,3.973,15.629,6.042,23.285
		c-0.22,0.133-0.428,0.268-0.667,0.41l-1.757,1.086c-1.081,0.769-2.17,1.482-3.188,2.291c-8.188,6.452-13.642,14.863-16.057,22.941
		c-2.525,8.087-2.4,15.688-1.048,21.852c1.4,6.188,4.055,11.019,6.952,14.19c2.843,3.252,5.817,4.75,7.783,5.474
		c0.499,0.167,0.938,0.317,1.313,0.442c0.38,0.077,0.697,0.14,0.947,0.186c0.511,0.099,0.768,0.149,0.768,0.149
		s-0.208-0.165-0.608-0.488c-0.409-0.313-1.021-0.813-1.68-1.492c-1.335-1.379-3.082-3.649-4.276-6.938
		c-1.217-3.265-1.938-7.53-1.538-12.4c0.344-4.854,1.839-10.299,4.741-15.449c2.942-5.143,7.363-9.883,13.301-13.322
		c0.078-0.055,0.17-0.096,0.252-0.146c1.854,6.413,3.749,12.75,5.688,18.979c4.126,13.437,8.371,26.425,12.501,38.963
		c2.063,6.269,4.088,12.429,6.081,18.476c0.112,0.354,0.217,0.694,0.328,1.05C92.361,279.582,87.817,280.764,83.129,281.287z
		 M125.59,233.163c1.277,9.713-1.692,21.497-9.496,30.716c-4.1,4.996-9.484,9.199-15.63,12.267
		c-5.372-18.532-11.063-38.063-16.605-58.532c-1.775-6.604-3.544-13.306-5.303-20.093c0.04-0.014,0.07-0.021,0.111-0.03
		c0.8-0.211,1.582-0.479,2.409-0.604c3.248-0.701,6.701-0.674,10.289-0.094c7.136,1.293,14.846,5.305,21.31,11.616
		c3.212,3.157,6.129,6.841,8.404,10.979c1.143,2.069,2.131,4.244,2.878,6.517c0.422,1.131,0.682,2.297,0.986,3.47l0.19,0.887
		l0.098,0.443l0.05,0.227c0.032,0.332,0.016-0.207,0.03-0.039L125.59,233.163z"/>
	<path fill="#FF0000" d="M134.171,213.9c-1.271-3.267-2.802-6.386-4.64-9.254c-1.804-2.89-3.786-5.63-6.043-8.074
		c-8.845-9.895-20.748-16.536-33.331-18.089c-3.128-0.394-6.283-0.478-9.367-0.235c-3.08,0.316-6.104,0.818-8.959,1.717
		c-0.776,0.211-1.533,0.463-2.277,0.736c-2.301-9.304-4.551-18.768-6.729-28.363c7.406-10.103,14.431-20.701,20.262-32.813
		c3.769-7.968,7.074-16.736,8.435-26.109c0.729-4.657,0.953-9.361,0.878-13.954c-0.063-2.322-0.213-4.486-0.4-6.872l-0.324-3.043
		l-0.438-3.362c-1.227-8.723-3.466-17.293-6.859-25.542c-3.395-8.228-7.806-16.173-14.284-23.064
		c-1.633-1.721-3.402-3.363-5.437-4.862c-2.027-1.492-4.287-2.894-7.072-3.86c-1.372-0.489-2.933-0.835-4.615-0.946
		c-0.848-0.048-1.717-0.04-2.63,0.082C50.016,8.034,50.112,8,49.449,8.117L49.078,8.2c-0.372,0.08-1.292,0.33-1.668,0.499
		c-1.946,0.738-3.511,1.942-4.671,3.169c-1.175,1.239-2.003,2.515-2.664,3.747c-2.498,4.94-3.114,9.394-3.654,13.752
		c-0.458,4.352-0.535,8.575-0.467,12.743c0.477,16.636,2.754,32.564,5.479,48.213c2.362,13.762,5.116,27.243,8.077,40.483
		c-4.002,5.727-8.15,11.437-12.237,17.115c-2.365,3.271-4.731,6.396-7.108,9.775c-2.485,3.499-4.854,7.077-7.028,10.773
		c-4.361,7.384-7.987,15.199-10.771,23.291c-2.831,8.065-4.719,16.459-5.468,24.955c-0.789,8.478-0.434,17.061,1.354,25.341
		c0.38,2.067,1.015,4.104,1.549,6.135c0.701,2.003,1.285,4.013,2.155,5.938c1.543,3.91,3.623,7.586,5.915,11.053
		c4.581,6.969,10.826,12.641,17.703,16.729l2.604,1.479l2.689,1.276c1.729,0.886,3.756,1.544,5.585,2.271l2.611,0.794l1.438,0.435
		l1.393,0.329l2.761,0.675l2.793,0.534c7.434,1.351,14.99,1.592,22.318,0.729c5.09-0.597,10.065-1.733,14.862-3.334
		c1.043,3.329,2.064,6.64,3.044,9.905c1.781,5.833,3.302,11.607,4.667,17.263c1.338,5.653,2.501,11.209,3.123,16.648
		c0.315,2.719,0.521,5.399,0.53,8.027c-0.005,0.633,0.032,1.37-0.007,1.906l-0.113,2.015c-0.155,1.232-0.273,2.415-0.555,3.646
		c-0.955,4.875-3.059,9.313-5.894,12.906c-2.88,3.563-6.461,6.271-10.334,7.907l-1.467,0.554l-0.364,0.145
		c-0.033,0.014-0.175,0.065-0.126,0.045l-0.206,0.063l-0.816,0.253c-1,0.28-1.923,0.493-2.948,0.671
		c-1.992,0.327-3.968,0.489-5.879,0.358c-1.91-0.131-3.743-0.462-5.457-0.971c-1.702-0.564-3.257-1.319-4.645-2.195
		c-2.762-1.813-4.758-4.183-5.916-6.714c-0.613-1.246-0.982-2.565-1.237-3.848c-0.146-0.639-0.229-1.286-0.284-1.918l-0.054-0.956
		c0.077,0.267,0.014-0.016,0.024,0.005l-0.016-0.15l-0.03-0.304l-0.06-0.599c0.037-0.928,0.051-2.235,0.271-3.26
		c0.196-1.063,0.477-2.058,0.811-2.942c0.439-1.146,0.985-2.068,1.563-2.826c2.826,1.476,6.126,2.119,9.521,1.614
		c8.539-1.271,14.432-9.228,13.16-17.769c-1.272-8.541-9.121-14.735-17.688-13.628c-6.103,0.791-12.096,3.449-16.961,10.328
		c-3.892,5.496-6.514,12.902-6.349,20.322c0.014,1.858,0.182,3.757,0.521,5.663c0.366,1.955,0.777,3.709,1.518,5.886
		c1.333,3.473,3.519,7.388,6.435,10.66c2.947,3.303,6.747,6.08,11.045,7.807c2.132,0.896,4.389,1.552,6.705,1.915
		c2.312,0.422,4.688,0.584,7.079,0.493c2.392-0.094,4.808-0.408,7.196-0.996c1.162-0.284,2.42-0.676,3.588-1.104l0.803-0.309
		l0.471-0.188l0.438-0.196l1.729-0.783c2.263-1.178,4.459-2.559,6.475-4.248c1.986-1.708,3.813-3.663,5.402-5.825
		c3.101-4.381,5.315-9.545,6.207-15.087c0.26-1.355,0.37-2.832,0.484-4.262l0.044-2.018c0.03-0.813-0.03-1.431-0.039-2.154
		c-0.078-2.812-0.358-5.611-0.753-8.427c-1.533-11.271-4.67-22.66-7.951-34.484c-0.966-3.371-1.949-6.793-2.945-10.24
		c7.571-3.005,14.592-7.23,20.587-12.676c5.313-4.854,9.864-10.617,13.102-17.112c1.663-3.226,2.918-6.654,3.853-10.156
		c0.49-1.756,0.829-3.531,1.13-5.319c0.18-0.865,0.23-1.898,0.343-2.851c0.097-0.955,0.195-2.004,0.214-2.684l0.116-2.295
		l-0.098-3.016c-0.104-1.822-0.276-3.648-0.612-5.416C136.443,220.601,135.476,217.152,134.171,213.9z M51.591,19.992
		c0.047-0.012-0.038,0.018-0.12,0.04C51.565,19.972,51.626,19.946,51.591,19.992z M51.385,20.129l0.053-0.007
		C51.38,20.129,51.34,20.135,51.385,20.129z M50.431,88.869c-1.129-7.729-2.099-15.515-2.813-23.33
		c-0.729-7.807-1.155-15.667-0.951-23.405c0.105-3.857,0.358-7.695,0.911-11.348c0.54-3.591,1.467-7.23,2.797-9.457
		c0.44-0.759,0.875-1.148,1.087-1.291l0.292-0.049c-0.414,0.074-0.063,0.033-0.136,0.053c0.094-0.007,0.236,0.016,0.4,0.042
		c0.333,0.07,0.77,0.173,1.286,0.414c2.121,0.876,4.657,3.196,6.689,5.859c4.154,5.47,6.993,12.457,8.911,19.591
		c1.896,7.178,2.876,14.711,3.411,22.205l0.151,2.727l0.105,3.059c0,1.688,0.011,3.609-0.065,5.36
		c-0.193,3.561-0.604,7.016-1.379,10.375c-1.467,6.719-4.337,13.228-7.901,19.726c-2.185,3.877-4.583,7.746-7.104,11.606
		C54.025,110.425,52.072,99.712,50.431,88.869z M78.962,283.597c-3.297,0.386-6.651,0.505-10.02,0.301
		c-3.367-0.134-6.739-0.649-10.072-1.385l-2.501-0.573l-2.473-0.727l-1.236-0.368l-1.141-0.426l-2.561-0.954
		c-2.935-1.313-5.988-2.817-8.701-4.838c-2.721-1.964-5.275-4.174-7.403-6.771c-2.16-2.558-4.108-5.303-5.616-8.316
		c-1.553-2.979-2.759-6.151-3.594-9.452c-0.5-1.611-0.736-3.322-1.096-4.979c-0.193-1.708-0.517-3.379-0.572-5.107
		c-0.987-13.771,2.713-27.889,8.763-40.923c3.058-6.534,6.768-12.83,10.913-18.897c2.079-3.031,4.258-6.019,6.58-8.909
		c2.466-3.125,4.937-6.257,7.412-9.396c0.311-0.401,0.617-0.813,0.929-1.22c1.959,7.872,3.973,15.629,6.042,23.284
		c-0.22,0.134-0.428,0.267-0.667,0.409l-1.757,1.086c-1.081,0.77-2.17,1.481-3.188,2.291c-8.188,6.453-13.642,14.863-16.057,22.94
		c-2.525,8.089-2.4,15.688-1.048,21.853c1.4,6.188,4.055,11.018,6.952,14.189c2.843,3.252,5.817,4.75,7.783,5.477
		c0.499,0.167,0.938,0.314,1.313,0.439c0.38,0.077,0.697,0.143,0.947,0.188c0.511,0.096,0.768,0.146,0.768,0.146
		s-0.208-0.165-0.608-0.485c-0.409-0.313-1.021-0.813-1.68-1.492c-1.335-1.379-3.082-3.652-4.276-6.94
		c-1.217-3.263-1.938-7.528-1.541-12.399c0.347-4.854,1.842-10.299,4.744-15.449c2.942-5.143,7.363-9.883,13.301-13.323
		c0.078-0.054,0.17-0.095,0.252-0.146c1.854,6.414,3.749,12.75,5.688,18.979c4.126,13.436,8.371,26.423,12.501,38.961
		c2.063,6.271,4.088,12.429,6.081,18.479c0.112,0.351,0.217,0.691,0.328,1.049C88.194,281.892,83.65,283.072,78.962,283.597z
		 M121.423,235.472c1.277,9.714-1.692,21.498-9.496,30.717c-4.1,4.996-9.484,9.199-15.63,12.264
		c-5.372-18.532-11.063-38.062-16.605-58.531c-1.775-6.604-3.544-13.305-5.303-20.093c0.04-0.012,0.07-0.022,0.111-0.03
		c0.8-0.211,1.582-0.479,2.409-0.604c3.248-0.701,6.701-0.675,10.289-0.096c7.136,1.293,14.846,5.306,21.31,11.617
		c3.212,3.157,6.129,6.842,8.404,10.98c1.143,2.068,2.131,4.243,2.878,6.516c0.422,1.131,0.682,2.297,0.986,3.471l0.19,0.887
		l0.098,0.443l0.05,0.227c0.032,0.331,0.016-0.208,0.03-0.04L121.423,235.472z"/>
	<g>
		<path opacity="0.5" fill="#00C700" d="M419.443,268.16v-87.334c0-0.938-0.808-1.695-1.803-1.695c-0.997,0-1.804,0.757-1.804,1.695
			v82.211c-4.432-3.117-12.026-3.553-19.383-0.646c-9.658,3.822-15.237,11.953-12.457,18.161c2.779,6.208,12.862,8.147,22.52,4.325
			C415.443,281.346,420.865,274.135,419.443,268.16z"/>
		<path opacity="0.5" fill="#D02A00" d="M611.221,243.742v-69.233c0-0.745-0.641-1.344-1.432-1.344c-0.788,0-1.43,0.599-1.43,1.344
			v65.17c-3.515-2.468-9.535-2.818-15.368-0.513c-7.658,3.029-12.078,9.476-9.875,14.399c2.204,4.921,10.198,6.46,17.853,3.43
			C608.047,254.193,612.348,248.477,611.221,243.742z"/>
		<path opacity="0.5" fill="#FF95AB" d="M814.833,226.364v-54.27c0-0.583-0.506-1.054-1.124-1.054c-0.62,0-1.12,0.471-1.12,1.054
			v51.086c-2.757-1.937-7.478-2.213-12.047-0.402c-6.003,2.376-9.469,7.43-7.742,11.287c1.729,3.857,7.993,5.063,13.996,2.687
			C812.345,234.559,815.717,230.076,814.833,226.364z"/>
		<path opacity="0.5" fill="#F4C700" d="M978.819,216.84v-51.55c0-0.555-0.476-1-1.063-1c-0.589,0-1.065,0.445-1.065,1v48.528
			c-2.617-1.842-7.103-2.102-11.444-0.381c-5.701,2.254-8.992,7.055-7.353,10.721c1.641,3.665,7.594,4.811,13.294,2.553
			C976.455,224.624,979.659,220.367,978.819,216.84z"/>
		<path opacity="0.5" fill="#8B6100" d="M1141.533,210.104v-48.97c0-0.525-0.452-0.949-1.012-0.949s-1.015,0.422-1.015,0.949v46.096
			c-2.486-1.749-6.746-1.995-10.869-0.361c-5.42,2.143-8.545,6.702-6.988,10.185c1.559,3.479,7.215,4.568,12.633,2.426
			C1139.289,217.498,1142.331,213.454,1141.533,210.104z"/>
		<path opacity="0.5" fill="#FF9700" d="M1299.484,204.852v-46.52c0-0.501-0.433-0.904-0.963-0.904s-0.962,0.403-0.962,0.904v43.789
			c-2.359-1.66-6.409-1.893-10.329-0.342c-5.146,2.036-8.116,6.368-6.637,9.677c1.479,3.307,6.854,4.341,11.998,2.304
			C1297.35,211.877,1300.24,208.035,1299.484,204.852z"/>
		<g opacity="0.5">
			<path d="M250.052,309.794v-96.776c0-1.038-0.895-1.88-1.999-1.88c-1.104,0-2,0.842-2,1.88v91.101
				c-4.912-3.454-13.328-3.94-21.479-0.716c-10.701,4.236-16.883,13.246-13.802,20.126c3.081,6.875,14.25,9.027,24.954,4.793
				C245.617,324.404,251.628,316.413,250.052,309.794z"/>
			
				<line fill="none" stroke="#000000" stroke-width="3" stroke-miterlimit="10" x1="195.901" y1="315.542" x2="263.989" y2="315.542"/>
		</g>
	</g>
</g>
</svg>
