<?xml version="1.0" encoding="utf-8"?>
<!-- Generator: Adobe Illustrator 16.0.0, SVG Export Plug-In . SVG Version: 6.00 Build 0)  -->
<!DOCTYPE svg PUBLIC "-//W3C//DTD SVG 1.1//EN" "http://www.w3.org/Graphics/SVG/1.1/DTD/svg11.dtd">
<svg version="1.1" id="Capa_1" xmlns="http://www.w3.org/2000/svg" xmlns:xlink="http://www.w3.org/1999/xlink" x="0px" y="0px"
	 width="1415px" height="385px" viewBox="58.487 67.566 1415 385" enable-background="new 58.487 67.566 1415 385"
	 xml:space="preserve">
<g>
	<path fill="#C7C7C7" d="M1460.746,226.732c0,0-235.554,22.427-543.089,15.699c-231.501-5.063-410.67-19.209-531.541-31.398
		c-141.354-14.254-278.551-73.646-278.551-73.646v-5c0,0,133.663,59.458,279.884,75.158
		c177.875,19.098,387.463,28.07,504.438,30.906c359.527,8.714,572.005-15.447,572.005-15.447L1460.746,226.732z"/>
	<path fill="#C7C7C7" d="M1460.75,337.625c0,0-235.556-22.428-543.092-15.699c-231.501,5.064-410.67,19.209-531.54,31.398
		c-141.354,14.254-271.548,73.646-271.548,73.646v5c0,0,126.659-59.459,272.882-75.158
		c177.874-19.098,387.462-28.069,504.438-30.905c359.528-8.715,572.003,15.446,572.003,15.446L1460.75,337.625z"/>
	<path fill="#C7C7C7" d="M1464.457,249.407c0,0-235.482,21.225-543.018,14.495c-231.502-5.063-418.172-7.809-540.105-16.018
		c-182.098-12.259-273.769-37.17-273.769-37.17l2.001-5.829c0,0,92.428,27.765,280.685,38.804
		c180.124,10.563,388.372,14.601,505.348,17.437c359.526,8.715,572-15.446,572-15.446L1464.457,249.407z"/>
	<path fill="#C7C7C7" d="M1464.457,314.69c0,0-235.482-21.226-543.018-14.497c-231.502,5.064-418.172,7.81-540.105,16.019
		c-182.098,12.26-267.766,37.172-267.766,37.172l8.004,4.828c0,0,80.422-26.764,268.679-37.805
		c180.124-10.563,388.372-14.601,505.348-17.437c359.526-8.715,572,15.447,572,15.447L1464.457,314.69z"/>
	<path fill="#C7C7C7" d="M1459.77,285.658c0,0-256.331-5.067-563.539-4.626c-231.677,0.334-383.808-1.896-506.825-1.695
		c-183.403,0.297-282.766-1.594-282.766-1.594v5.78c0,0,93.838,0.199,283.122,0.199c174.57,0,386.54-1.471,503.625-1.494
		c357.685-0.071,566.384,6.642,566.384,6.642L1459.77,285.658L1459.77,285.658z"/>
</g>
<g>
	
		<linearGradient id="SVGID_1_" gradientUnits="userSpaceOnUse" x1="384.7668" y1="54.6514" x2="1496.1188" y2="54.6514" gradientTransform="matrix(1 0 0 -1 -254.2695 240.7725)">
		<stop  offset="0" style="stop-color:#000000"/>
		<stop  offset="0.1935" style="stop-color:#454545"/>
		<stop  offset="0.3065" style="stop-color:#919191"/>
		<stop  offset="0.4731" style="stop-color:#525252"/>
		<stop  offset="0.6129" style="stop-color:#919191"/>
		<stop  offset="0.6989" style="stop-color:#525252"/>
		<stop  offset="0.8656" style="stop-color:#333333"/>
		<stop  offset="1" style="stop-color:#000000"/>
	</linearGradient>
	<path fill="url(#SVGID_1_)" d="M1459.821,224.814c0,0-235.554,22.428-543.089,15.7c-231.501-5.064-410.67-19.21-531.541-31.399
		c-141.354-14.254-278.551-73.646-278.551-73.646v-5c0,0,133.663,59.458,279.884,75.158
		c177.875,19.098,387.463,28.07,504.438,30.906c359.527,8.716,572.005-15.447,572.005-15.447L1459.821,224.814z"/>
	
		<linearGradient id="SVGID_2_" gradientUnits="userSpaceOnUse" x1="391.6487" y1="1274.3242" x2="1497.2614" y2="1274.3242" gradientTransform="matrix(1 0 0 1 -254.2695 -899.9219)">
		<stop  offset="0" style="stop-color:#000000"/>
		<stop  offset="0.1935" style="stop-color:#454545"/>
		<stop  offset="0.3065" style="stop-color:#919191"/>
		<stop  offset="0.4731" style="stop-color:#525252"/>
		<stop  offset="0.6129" style="stop-color:#919191"/>
		<stop  offset="0.6989" style="stop-color:#525252"/>
		<stop  offset="0.8656" style="stop-color:#333333"/>
		<stop  offset="1" style="stop-color:#000000"/>
	</linearGradient>
	<path fill="url(#SVGID_2_)" d="M1459.824,335.709c0,0-235.556-22.428-543.092-15.699c-231.501,5.064-410.67,19.209-531.541,31.398
		c-141.354,14.254-271.547,73.646-271.547,73.646v5c0,0,126.659-59.459,272.881-75.157c177.875-19.099,387.463-28.07,504.438-30.906
		c359.528-8.715,572.003,15.446,572.003,15.446L1459.824,335.709z"/>
	
		<linearGradient id="SVGID_3_" gradientUnits="userSpaceOnUse" x1="384.8323" y1="247.6152" x2="1499.2217" y2="247.6152" gradientTransform="matrix(1 0 0 -1 -254.2695 480.752)">
		<stop  offset="0" style="stop-color:#000000"/>
		<stop  offset="0.1935" style="stop-color:#454545"/>
		<stop  offset="0.3065" style="stop-color:#919191"/>
		<stop  offset="0.4731" style="stop-color:#525252"/>
		<stop  offset="0.6129" style="stop-color:#919191"/>
		<stop  offset="0.6989" style="stop-color:#525252"/>
		<stop  offset="0.8656" style="stop-color:#333333"/>
		<stop  offset="1" style="stop-color:#000000"/>
	</linearGradient>
	<path fill="url(#SVGID_3_)" d="M1463.531,247.491c0,0-235.481,21.225-543.017,14.495c-231.502-5.063-418.172-7.809-540.106-16.018
		c-182.097-12.26-273.768-37.172-273.768-37.172l2.001-5.829c0,0,92.427,27.765,280.684,38.805
		c180.124,10.563,388.373,14.6,505.349,17.436c359.525,8.715,572-15.447,572-15.447L1463.531,247.491z"/>
	
		<linearGradient id="SVGID_4_" gradientUnits="userSpaceOnUse" x1="390.7292" y1="1372.498" x2="1500.2" y2="1372.498" gradientTransform="matrix(1 0 0 1 -254.2695 -1045.8701)">
		<stop  offset="0" style="stop-color:#000000"/>
		<stop  offset="0.1935" style="stop-color:#454545"/>
		<stop  offset="0.3065" style="stop-color:#919191"/>
		<stop  offset="0.4731" style="stop-color:#525252"/>
		<stop  offset="0.6129" style="stop-color:#919191"/>
		<stop  offset="0.6989" style="stop-color:#525252"/>
		<stop  offset="0.8656" style="stop-color:#333333"/>
		<stop  offset="1" style="stop-color:#000000"/>
	</linearGradient>
	<path fill="url(#SVGID_4_)" d="M1463.531,312.774c0,0-235.481-21.226-543.017-14.497c-231.502,5.063-418.172,7.81-540.106,16.019
		c-182.097,12.26-267.765,37.172-267.765,37.172l8.004,4.827c0,0,80.421-26.764,268.678-37.804
		c180.124-10.563,388.373-14.601,505.349-17.437c359.525-8.716,572,15.447,572,15.447L1463.531,312.774z"/>
	
		<linearGradient id="SVGID_5_" gradientUnits="userSpaceOnUse" x1="383.7668" y1="1327.2295" x2="1491.6384" y2="1327.2295" gradientTransform="matrix(1 0 0 1 -254.2695 -1045.8701)">
		<stop  offset="0" style="stop-color:#000000"/>
		<stop  offset="0.1935" style="stop-color:#454545"/>
		<stop  offset="0.3065" style="stop-color:#919191"/>
		<stop  offset="0.4731" style="stop-color:#525252"/>
		<stop  offset="0.6129" style="stop-color:#919191"/>
		<stop  offset="0.6989" style="stop-color:#525252"/>
		<stop  offset="0.8656" style="stop-color:#333333"/>
		<stop  offset="1" style="stop-color:#000000"/>
	</linearGradient>
	<path fill="url(#SVGID_5_)" d="M1457.793,284.173c0,0-255.279-5.499-562.487-5.058c-231.677,0.334-383.809-1.895-506.825-1.695
		c-183.403,0.297-282.766-1.594-282.766-1.594v5.781c0,0,93.838,0.199,283.122,0.199c174.57,0,386.54-1.473,503.625-1.496
		c357.685-0.07,565.333,6.582,565.333,6.582v-2.72H1457.793z"/>
</g>
<path d="M313.853,401.355V289.482c0-1.2-0.973-2.174-2.172-2.174c-1.2,0-2.173,0.974-2.173,2.174v105.312
	c-5.339-3.993-14.485-4.555-23.345-0.827c-11.63,4.896-18.347,15.311-15,23.264c3.349,7.949,15.489,10.436,27.12,5.54
	C309.033,418.245,315.566,409.007,313.853,401.355z"/>
<path d="M497.952,353.227V252.262c0-1.084-0.878-1.961-1.96-1.961c-1.083,0-1.96,0.877-1.96,1.961v95.043
	c-4.818-3.604-13.072-4.109-21.068-0.746c-10.496,4.418-16.558,13.817-13.538,20.994c3.021,7.176,13.979,9.418,24.476,5
	C493.603,368.469,499.498,360.133,497.952,353.227z"/>
<path d="M706.378,325v-80.044c0-0.86-0.696-1.554-1.554-1.554c-0.858,0-1.554,0.693-1.554,1.554v75.348
	c-3.82-2.855-10.363-3.259-16.702-0.593c-8.322,3.502-13.126,10.953-10.733,16.644c2.396,5.69,11.083,7.468,19.404,3.965
	C702.929,337.081,707.604,330.473,706.378,325z"/>
<path d="M927.668,304.911v-62.748c0-0.673-0.548-1.218-1.22-1.218c-0.674,0-1.218,0.545-1.218,1.218v59.068
	c-2.996-2.239-8.126-2.557-13.093-0.465c-6.523,2.746-10.29,8.588-8.414,13.047c1.879,4.459,8.688,5.854,15.211,3.107
	C924.964,314.383,928.628,309.202,927.668,304.911z"/>
<path d="M1105.891,293.9v-59.607c0-0.641-0.518-1.157-1.156-1.157c-0.64,0-1.158,0.517-1.158,1.157v56.113
	c-2.844-2.129-7.719-2.429-12.438-0.44c-6.196,2.606-9.773,8.155-7.991,12.394c1.783,4.236,8.253,5.559,14.448,2.951
	C1103.323,302.898,1106.804,297.979,1105.891,293.9z"/>
<path d="M1262.063,286.113v-56.626c0-0.608-0.492-1.099-1.1-1.099c-0.608,0-1.101,0.491-1.101,1.099v53.304
	c-2.702-2.021-7.332-2.307-11.815-0.418c-5.889,2.477-9.286,7.748-7.594,11.773c1.695,4.024,7.84,5.281,13.729,2.805
	C1259.623,294.661,1262.93,289.986,1262.063,286.113z"/>
<path d="M1381.507,280.042v-53.795c0-0.579-0.468-1.045-1.045-1.045s-1.045,0.466-1.045,1.045v50.639
	c-2.566-1.919-6.965-2.188-11.226-0.396c-5.593,2.354-8.821,7.361-7.213,11.187c1.608,3.822,7.448,5.019,13.04,2.663
	C1379.189,288.163,1382.331,283.722,1381.507,280.042z"/>
<path fill="#C7C7C7" d="M197.438,280.311c-1.271-3.266-2.802-6.386-4.64-9.254c-1.804-2.89-3.786-5.63-6.043-8.074
	c-8.845-9.896-20.748-16.535-33.331-18.09c-3.128-0.393-6.283-0.477-9.367-0.234c-3.08,0.316-6.104,0.818-8.959,1.716
	c-0.776,0.212-1.533,0.464-2.277,0.737c-2.301-9.304-4.551-18.769-6.729-28.365c7.406-10.101,14.431-20.7,20.262-32.813
	c3.767-7.968,7.074-16.737,8.433-26.11c0.729-4.657,0.955-9.361,0.878-13.954c-0.063-2.322-0.213-4.486-0.4-6.872l-0.324-3.043
	l-0.438-3.362c-1.225-8.723-3.466-17.293-6.859-25.542c-3.395-8.228-7.806-16.173-14.284-23.064
	c-1.633-1.721-3.404-3.363-5.437-4.862c-2.027-1.492-4.287-2.894-7.072-3.86c-1.372-0.489-2.933-0.835-4.615-0.946
	c-0.848-0.048-1.717-0.04-2.63,0.082c-0.325,0.042-0.229,0.008-0.891,0.125l-0.371,0.083c-0.372,0.08-1.292,0.33-1.668,0.499
	c-1.946,0.738-3.511,1.942-4.671,3.169c-1.175,1.239-2.003,2.515-2.664,3.747c-2.498,4.94-3.114,9.394-3.654,13.752
	c-0.458,4.352-0.535,8.575-0.467,12.743c0.477,16.636,2.754,32.564,5.479,48.213c2.363,13.762,5.117,27.243,8.078,40.484
	c-4.002,5.726-8.152,11.436-12.239,17.115c-2.365,3.271-4.731,6.396-7.108,9.776c-2.485,3.499-4.854,7.077-7.028,10.774
	c-4.363,7.383-7.989,15.199-10.773,23.29c-2.831,8.066-4.719,16.46-5.468,24.956c-0.789,8.476-0.432,17.06,1.356,25.339
	c0.38,2.07,1.014,4.105,1.549,6.135c0.701,2.003,1.285,4.014,2.155,5.941c1.543,3.91,3.623,7.585,5.915,11.05
	c4.581,6.969,10.826,12.642,17.703,16.729l2.605,1.479l2.689,1.279c1.729,0.883,3.756,1.544,5.585,2.268l2.611,0.794l1.439,0.436
	l1.391,0.329l2.761,0.675l2.793,0.534c7.434,1.348,14.99,1.592,22.319,0.727c5.089-0.594,10.066-1.732,14.863-3.334
	c1.043,3.33,2.064,6.64,3.044,9.908c1.781,5.833,3.301,11.606,4.667,17.26c1.338,5.656,2.501,11.209,3.123,16.651
	c0.315,2.718,0.52,5.398,0.53,8.026c-0.005,0.634,0.032,1.37-0.007,1.906l-0.113,2.016c-0.155,1.231-0.274,2.415-0.555,3.644
	c-0.955,4.875-3.057,9.313-5.892,12.908c-2.88,3.561-6.461,6.271-10.334,7.907l-1.467,0.554l-0.364,0.142
	c-0.035,0.015-0.175,0.068-0.126,0.045l-0.206,0.063l-0.818,0.253c-1,0.28-1.923,0.493-2.948,0.669
	c-1.992,0.329-3.968,0.491-5.879,0.36c-1.91-0.132-3.743-0.462-5.457-0.972c-1.702-0.563-3.257-1.318-4.645-2.194
	c-2.76-1.813-4.756-4.184-5.916-6.714c-0.613-1.246-0.982-2.565-1.237-3.849c-0.145-0.636-0.229-1.286-0.284-1.918l-0.054-0.956
	c0.077,0.268,0.014-0.013,0.026,0.005l-0.016-0.149l-0.03-0.305l-0.06-0.599c0.037-0.925,0.051-2.235,0.271-3.257
	c0.196-1.064,0.475-2.059,0.809-2.945c0.441-1.144,0.987-2.067,1.565-2.826c2.826,1.477,6.126,2.119,9.521,1.614
	c8.539-1.271,14.432-9.225,13.16-17.766s-9.121-14.738-17.686-13.628c-6.103,0.791-12.096,3.449-16.961,10.328
	c-3.892,5.496-6.514,12.901-6.349,20.321c0.014,1.861,0.182,3.757,0.521,5.663c0.366,1.955,0.777,3.709,1.516,5.886
	c1.333,3.474,3.519,7.389,6.435,10.66c2.947,3.304,6.747,6.08,11.045,7.808c2.132,0.894,4.388,1.552,6.705,1.915
	c2.31,0.422,4.686,0.584,7.079,0.493c2.392-0.095,4.808-0.408,7.196-0.996c1.162-0.284,2.42-0.677,3.588-1.106l0.803-0.306
	l0.471-0.19l0.436-0.196l1.731-0.782c2.261-1.179,4.459-2.56,6.473-4.248c1.989-1.708,3.813-3.663,5.404-5.825
	c3.099-4.381,5.315-9.545,6.207-15.087c0.258-1.358,0.37-2.832,0.484-4.262l0.044-2.019c0.03-0.812-0.03-1.428-0.039-2.154
	c-0.078-2.809-0.359-5.61-0.753-8.427c-1.533-11.271-4.67-22.66-7.951-34.483c-0.966-3.371-1.948-6.793-2.946-10.24
	c7.572-3.005,14.591-7.233,20.586-12.676c5.313-4.854,9.866-10.617,13.102-17.112c1.663-3.227,2.918-6.657,3.853-10.159
	c0.49-1.753,0.829-3.531,1.128-5.319c0.18-0.865,0.232-1.897,0.343-2.849c0.097-0.956,0.196-2.004,0.214-2.683l0.116-2.295
	l-0.096-3.015c-0.104-1.823-0.278-3.649-0.614-5.417C199.709,287.011,198.742,283.563,197.438,280.311z M114.858,86.403
	c0.047-0.012-0.038,0.018-0.12,0.04C114.831,86.382,114.893,86.356,114.858,86.403z M114.652,86.539l0.051-0.007
	C114.647,86.539,114.607,86.545,114.652,86.539z M113.698,155.28c-1.129-7.729-2.099-15.515-2.814-23.33
	c-0.729-7.807-1.155-15.667-0.951-23.405c0.105-3.857,0.358-7.695,0.911-11.348c0.54-3.591,1.467-7.23,2.797-9.457
	c0.44-0.759,0.875-1.148,1.087-1.291l0.292-0.049c-0.414,0.074-0.064,0.033-0.136,0.053c0.094-0.007,0.236,0.016,0.4,0.042
	c0.333,0.07,0.77,0.173,1.288,0.414c2.121,0.876,4.657,3.196,6.689,5.859c4.154,5.47,6.993,12.457,8.911,19.591
	c1.897,7.178,2.876,14.711,3.411,22.205l0.153,2.727l0.105,3.059c0,1.688,0.011,3.609-0.065,5.36
	c-0.195,3.561-0.604,7.016-1.379,10.375c-1.467,6.719-4.337,13.228-7.903,19.727c-2.183,3.876-4.583,7.745-7.102,11.606
	C117.291,176.835,115.338,166.123,113.698,155.28z M142.229,350.007c-3.297,0.386-6.653,0.505-10.02,0.301
	c-3.367-0.134-6.739-0.648-10.072-1.385l-2.501-0.573l-2.473-0.724l-1.236-0.371l-1.141-0.423l-2.559-0.954
	c-2.935-1.313-5.987-2.82-8.701-4.838c-2.721-1.964-5.277-4.174-7.405-6.771c-2.16-2.556-4.108-5.303-5.616-8.315
	c-1.553-2.982-2.759-6.154-3.594-9.452c-0.5-1.614-0.736-3.325-1.094-4.982c-0.195-1.708-0.517-3.379-0.574-5.106
	c-0.987-13.771,2.713-27.889,8.763-40.924c3.058-6.533,6.768-12.829,10.913-18.897c2.079-3.032,4.258-6.018,6.58-8.91
	c2.466-3.125,4.937-6.255,7.412-9.396c0.311-0.403,0.62-0.814,0.929-1.22c1.959,7.872,3.973,15.628,6.042,23.285
	c-0.22,0.133-0.428,0.266-0.667,0.409l-1.757,1.086c-1.081,0.769-2.17,1.483-3.188,2.292c-8.19,6.452-13.642,14.863-16.057,22.941
	c-2.525,8.087-2.4,15.688-1.048,21.852c1.402,6.187,4.055,11.017,6.952,14.19c2.843,3.252,5.819,4.75,7.785,5.474
	c0.499,0.167,0.938,0.317,1.311,0.442c0.38,0.077,0.697,0.14,0.947,0.186c0.511,0.097,0.768,0.149,0.768,0.149
	s-0.208-0.165-0.608-0.488c-0.411-0.313-1.021-0.813-1.68-1.492c-1.335-1.379-3.082-3.651-4.276-6.939
	c-1.217-3.264-1.938-7.53-1.54-12.4c0.344-4.854,1.839-10.299,4.743-15.451c2.942-5.141,7.363-9.882,13.299-13.322
	c0.08-0.055,0.17-0.096,0.252-0.146c1.854,6.413,3.749,12.75,5.688,18.979c4.126,13.436,8.371,26.424,12.501,38.962
	c2.063,6.269,4.088,12.429,6.081,18.476c0.112,0.352,0.217,0.694,0.328,1.049C151.46,348.302,146.916,349.483,142.229,350.007z
	 M184.69,301.883c1.277,9.713-1.694,21.497-9.496,30.716c-4.1,4.996-9.486,9.199-15.63,12.265
	c-5.372-18.532-11.065-38.063-16.607-58.532c-1.775-6.604-3.544-13.304-5.301-20.093c0.04-0.012,0.07-0.021,0.111-0.03
	c0.8-0.211,1.582-0.479,2.409-0.604c3.248-0.701,6.701-0.674,10.289-0.094c7.136,1.293,14.846,5.305,21.31,11.617
	c3.212,3.157,6.129,6.841,8.404,10.98c1.143,2.07,2.131,4.244,2.878,6.516c0.422,1.131,0.682,2.297,0.986,3.47l0.192,0.886
	l0.096,0.444l0.05,0.226c0.032,0.332,0.016-0.207,0.03-0.039L184.69,301.883z"/>
<path fill="#D10000" d="M193.271,282.62c-1.271-3.267-2.802-6.386-4.64-9.254c-1.804-2.89-3.786-5.63-6.043-8.074
	c-8.845-9.896-20.748-16.536-33.331-18.09c-3.128-0.394-6.283-0.478-9.367-0.235c-3.08,0.316-6.104,0.818-8.959,1.717
	c-0.776,0.211-1.533,0.463-2.277,0.736c-2.301-9.304-4.551-18.768-6.729-28.364c7.406-10.102,14.431-20.701,20.262-32.814
	c3.767-7.968,7.074-16.736,8.433-26.109c0.729-4.657,0.954-9.361,0.878-13.954c-0.063-2.322-0.213-4.486-0.4-6.872l-0.324-3.043
	l-0.438-3.362c-1.225-8.723-3.466-17.293-6.859-25.542c-3.395-8.228-7.806-16.173-14.284-23.064
	c-1.633-1.721-3.404-3.363-5.437-4.862c-2.027-1.492-4.287-2.894-7.072-3.86c-1.372-0.489-2.933-0.835-4.615-0.946
	c-0.848-0.048-1.717-0.04-2.63,0.082c-0.325,0.042-0.229,0.008-0.891,0.125l-0.371,0.083c-0.372,0.08-1.292,0.33-1.668,0.499
	c-1.946,0.738-3.511,1.942-4.671,3.169c-1.175,1.239-2.003,2.515-2.664,3.747c-2.498,4.94-3.114,9.394-3.654,13.752
	c-0.458,4.352-0.535,8.575-0.467,12.743c0.477,16.636,2.754,32.564,5.479,48.213c2.364,13.762,5.118,27.243,8.079,40.484
	c-4.002,5.726-8.152,11.436-12.239,17.115c-2.365,3.271-4.731,6.396-7.108,9.776c-2.485,3.499-4.855,7.077-7.028,10.774
	c-4.363,7.383-7.989,15.199-10.773,23.291c-2.831,8.066-4.719,16.459-5.468,24.955c-0.789,8.477-0.432,17.06,1.356,25.34
	c0.38,2.069,1.014,4.104,1.549,6.135c0.701,2.003,1.285,4.013,2.155,5.94c1.543,3.91,3.623,7.586,5.915,11.051
	c4.581,6.969,10.826,12.641,17.703,16.729l2.605,1.479l2.689,1.278c1.729,0.884,3.756,1.544,5.585,2.269l2.611,0.794l1.439,0.435
	l1.391,0.329l2.761,0.675l2.793,0.534c7.434,1.349,14.99,1.592,22.318,0.728c5.09-0.595,10.067-1.733,14.864-3.334
	c1.043,3.329,2.064,6.64,3.044,9.907c1.781,5.833,3.3,11.607,4.667,17.261c1.338,5.655,2.501,11.209,3.123,16.65
	c0.315,2.718,0.52,5.399,0.53,8.027c-0.005,0.633,0.032,1.37-0.007,1.906l-0.113,2.015c-0.155,1.232-0.275,2.415-0.555,3.645
	c-0.955,4.875-3.057,9.313-5.892,12.907c-2.88,3.562-6.461,6.271-10.334,7.907l-1.467,0.554l-0.364,0.143
	c-0.035,0.014-0.175,0.067-0.126,0.045l-0.206,0.063l-0.818,0.253c-1,0.28-1.923,0.493-2.948,0.669
	c-1.992,0.329-3.968,0.491-5.879,0.36c-1.91-0.131-3.743-0.462-5.457-0.971c-1.702-0.564-3.257-1.319-4.645-2.195
	c-2.76-1.813-4.756-4.183-5.916-6.714c-0.613-1.246-0.982-2.565-1.237-3.848c-0.145-0.637-0.229-1.286-0.284-1.918l-0.054-0.956
	c0.077,0.267,0.014-0.014,0.026,0.005l-0.016-0.15l-0.03-0.304l-0.06-0.599c0.037-0.926,0.051-2.235,0.271-3.258
	c0.196-1.063,0.475-2.058,0.809-2.944c0.441-1.145,0.987-2.068,1.565-2.826c2.826,1.476,6.126,2.119,9.521,1.614
	c8.539-1.271,14.432-9.226,13.16-17.767s-9.121-14.737-17.686-13.628c-6.103,0.791-12.096,3.449-16.961,10.328
	c-3.892,5.496-6.514,12.902-6.349,20.322c0.014,1.86,0.182,3.757,0.521,5.663c0.366,1.955,0.777,3.709,1.516,5.886
	c1.333,3.473,3.519,7.388,6.435,10.66c2.947,3.303,6.747,6.08,11.045,7.807c2.132,0.895,4.388,1.552,6.705,1.915
	c2.31,0.422,4.686,0.584,7.079,0.493c2.392-0.094,4.808-0.408,7.196-0.996c1.162-0.284,2.42-0.676,3.588-1.105l0.803-0.307
	l0.471-0.189l0.436-0.196l1.731-0.783c2.261-1.178,4.459-2.559,6.473-4.248c1.988-1.708,3.813-3.663,5.404-5.825
	c3.099-4.381,5.315-9.545,6.207-15.087c0.258-1.357,0.37-2.832,0.484-4.262l0.044-2.018c0.03-0.813-0.03-1.429-0.039-2.154
	c-0.078-2.81-0.359-5.611-0.753-8.427c-1.533-11.271-4.67-22.66-7.951-34.484c-0.966-3.371-1.949-6.793-2.946-10.24
	c7.572-3.005,14.591-7.232,20.586-12.676c5.313-4.854,9.866-10.617,13.102-17.112c1.663-3.226,2.918-6.656,3.852-10.158
	c0.491-1.754,0.83-3.531,1.129-5.319c0.18-0.865,0.232-1.898,0.343-2.85c0.097-0.955,0.196-2.004,0.214-2.683l0.116-2.295
	l-0.096-3.015c-0.104-1.823-0.278-3.649-0.614-5.416C195.542,289.32,194.575,285.872,193.271,282.62z M110.691,88.711
	c0.047-0.012-0.038,0.018-0.12,0.04C110.664,88.691,110.726,88.665,110.691,88.711z M110.485,88.848l0.051-0.007
	C110.48,88.848,110.44,88.854,110.485,88.848z M109.531,157.588c-1.129-7.729-2.099-15.515-2.814-23.33
	c-0.729-7.807-1.155-15.667-0.951-23.405c0.105-3.857,0.358-7.695,0.911-11.348c0.54-3.591,1.467-7.23,2.797-9.457
	c0.44-0.759,0.875-1.148,1.087-1.291l0.292-0.049c-0.414,0.074-0.064,0.033-0.136,0.053c0.094-0.007,0.236,0.016,0.4,0.042
	c0.333,0.07,0.77,0.173,1.288,0.414c2.121,0.876,4.657,3.196,6.689,5.859c4.154,5.47,6.993,12.457,8.911,19.591
	c1.897,7.178,2.876,14.711,3.411,22.205l0.153,2.727l0.105,3.059c0,1.688,0.011,3.609-0.065,5.36
	c-0.195,3.561-0.604,7.016-1.379,10.375c-1.467,6.719-4.337,13.228-7.903,19.726c-2.183,3.877-4.583,7.746-7.102,11.606
	C113.124,179.144,111.171,168.431,109.531,157.588z M138.062,352.316c-3.297,0.386-6.653,0.505-10.02,0.301
	c-3.367-0.134-6.739-0.649-10.072-1.385l-2.501-0.573l-2.473-0.725l-1.236-0.37l-1.141-0.424l-2.559-0.954
	c-2.935-1.313-5.988-2.819-8.701-4.838c-2.721-1.964-5.277-4.174-7.405-6.771c-2.16-2.556-4.108-5.303-5.616-8.316
	c-1.553-2.981-2.759-6.153-3.594-9.452c-0.5-1.613-0.736-3.324-1.094-4.981c-0.195-1.708-0.517-3.379-0.574-5.107
	c-0.987-13.771,2.713-27.889,8.763-40.923c3.058-6.534,6.768-12.83,10.913-18.897c2.079-3.033,4.258-6.019,6.58-8.911
	c2.466-3.125,4.937-6.255,7.412-9.396c0.311-0.402,0.619-0.814,0.929-1.22c1.959,7.872,3.973,15.629,6.042,23.284
	c-0.22,0.134-0.428,0.267-0.667,0.41l-1.757,1.086c-1.081,0.769-2.17,1.482-3.188,2.291c-8.19,6.453-13.642,14.863-16.057,22.941
	c-2.525,8.088-2.4,15.688-1.048,21.852c1.402,6.187,4.055,11.017,6.952,14.19c2.843,3.252,5.819,4.75,7.785,5.475
	c0.499,0.167,0.938,0.316,1.311,0.441c0.38,0.077,0.697,0.141,0.947,0.187c0.511,0.096,0.768,0.148,0.768,0.148
	s-0.208-0.165-0.608-0.487c-0.411-0.313-1.021-0.813-1.68-1.492c-1.335-1.379-3.082-3.652-4.276-6.94
	c-1.217-3.263-1.938-7.529-1.541-12.4c0.345-4.854,1.84-10.299,4.744-15.45c2.942-5.142,7.363-9.882,13.299-13.323
	c0.08-0.054,0.17-0.095,0.252-0.146c1.854,6.414,3.749,12.75,5.688,18.979c4.126,13.435,8.371,26.423,12.501,38.961
	c2.063,6.27,4.088,12.429,6.081,18.477c0.112,0.351,0.217,0.693,0.328,1.049C147.293,350.611,142.749,351.792,138.062,352.316z
	 M180.523,304.191c1.277,9.714-1.694,21.498-9.496,30.717c-4.1,4.996-9.486,9.199-15.63,12.264
	c-5.372-18.532-11.065-38.062-16.607-58.531c-1.775-6.605-3.544-13.305-5.301-20.093c0.04-0.012,0.07-0.022,0.111-0.03
	c0.8-0.211,1.582-0.479,2.409-0.604c3.248-0.701,6.701-0.675,10.289-0.095c7.136,1.293,14.846,5.305,21.31,11.617
	c3.212,3.157,6.129,6.842,8.404,10.981c1.143,2.069,2.131,4.243,2.878,6.515c0.422,1.131,0.682,2.297,0.986,3.471l0.192,0.886
	l0.096,0.444l0.05,0.226c0.032,0.331,0.016-0.208,0.03-0.04L180.523,304.191z"/>
</svg>
